<svg height="440.356" viewBox="0 0 706.196 440.356" width="706.196" xmlns="http://www.w3.org/2000/svg" xmlns:xlink="http://www.w3.org/1999/xlink"><filter id="a" filterUnits="userSpaceOnUse" height="199.705" width="314.585" x="180.832" y="93.424"><feOffset dy="20"/><feGaussianBlur result="b" stdDeviation="5"/><feFlood flood-opacity=".161"/><feComposite in2="b" operator="in"/><feComposite in="SourceGraphic"/></filter><linearGradient id="b" gradientUnits="objectBoundingBox" x2="1" y1=".5" y2=".5"><stop offset="0" stop-color="#1ec6b5"/><stop offset="1" stop-color="#39c"/></linearGradient><filter id="c" filterUnits="userSpaceOnUse" height="199.705" width="314.585" x="145.879" y="240.651"><feOffset dy="20"/><feGaussianBlur result="e" stdDeviation="5"/><feFlood flood-opacity=".161"/><feComposite in2="e" operator="in"/><feComposite in="SourceGraphic"/></filter><filter id="d" filterUnits="userSpaceOnUse" height="199.705" width="314.585" x="391.611" y="217.349"><feOffset dy="20"/><feGaussianBlur result="g" stdDeviation="5"/><feFlood flood-opacity=".161"/><feComposite in2="g" operator="in"/><feComposite in="SourceGraphic"/></filter><linearGradient id="e" gradientUnits="objectBoundingBox" x2="1" y1=".5" y2=".5"><stop offset="0" stop-color="#3c3c3c"/><stop offset="1" stop-color="#787878"/></linearGradient><clipPath id="f"><path d="m1251.448 301.274-.281-67.884a3.378 3.378 0 0 0 -1.409-3.094l-.011-.008c-1.06-.612-2.114-1.228-3.174-1.842a3.4 3.4 0 0 0 -3.427.338l-52.982 30.589a10.6 10.6 0 0 0 -4.8 8.312l.272 67.1 3.9 2.375zm-2.639-71.274a1.322 1.322 0 0 0 -.166-.019 1.322 1.322 0 0 1 .166.019zm.731.195c-.044-.017-.083-.043-.127-.059.044.015.087.041.128.058zm-.355-.123c-.047-.013-.1-.032-.144-.043.048.01.097.029.144.042zm-.782-.087c-.06 0-.119 0-.183 0 .064-.003.123.001.18-.001zm-.451.045c-.059.009-.117.015-.178.028.061-.013.119-.019.178-.028zm-.465.11c-.06.017-.115.028-.174.049.059-.021.114-.033.174-.05zm-.531.193-.126.047z" transform="translate(-1185.365 -228.122)"/></clipPath><g filter="url(#a)" transform="translate(.005 .003)"><path d="m318.967 131.136c3.9 2.249 3.918 5.923.046 8.174l-95.672 55.6a15.594 15.594 0 0 1 -14.113 0l-168.967-97.555c-3.9-2.249-3.929-5.928-.055-8.179l95.672-55.6a15.613 15.613 0 0 1 14.123 0z" fill="#dee7f7" transform="translate(158.51 61.53)"/></g><path d="m38.689 199.082.011-2.582c0 1.493.977 2.991 2.942 4.123l-.006 2.58c-1.968-1.13-2.95-2.626-2.947-4.121z" fill="#3b4e71" transform="translate(157.136 -41.741)"/><path d="m219.687 223.071-.008 2.578c0 1.471-.966 2.94-2.891 4.059l.008-2.578c1.923-1.119 2.886-2.588 2.891-4.059z" fill="#3b4e71" transform="translate(260.731 -26.288)"/><path d="m251.98 225.637-.007 2.579-95.673 55.6.007-2.579z" fill="#3b4e71" transform="translate(225.547 -24.796)"/><path d="m209.524 296.665-.007 2.579-168.967-97.554.007-2.579z" fill="#3b4e71" transform="translate(158.218 -40.224)"/><path d="m320.342 256.967c3.9 2.249 3.918 5.923.046 8.174l-95.672 55.6a15.594 15.594 0 0 1 -14.113 0l-168.967-97.555c-3.9-2.249-3.929-5.928-.055-8.179l95.672-55.6a15.613 15.613 0 0 1 14.123 0z" fill="url(#b)" transform="translate(157.139 -64.299)"/><path d="m161.5 260.789-.008 2.578a15.59 15.59 0 0 1 -14.112 0l.006-2.578a15.593 15.593 0 0 0 14.114 0z" fill="#3b4e71" transform="translate(220.357 -4.348)"/><g fill="#dee7f7"><path d="m84.637 195.715a5.345 5.345 0 0 1 -1.082.781 7.392 7.392 0 0 1 -1.567.677 7.809 7.809 0 0 1 -1.689.3 6.616 6.616 0 0 1 -1.661-.111 5.037 5.037 0 0 1 -1.553-.584 2.8 2.8 0 0 1 -1-.892 1.406 1.406 0 0 1 -.217-.985 2.114 2.114 0 0 1 .528-1.009 4.768 4.768 0 0 1 1.2-.955 7.082 7.082 0 0 1 1.367-.607 9.678 9.678 0 0 1 1.367-.326 8.484 8.484 0 0 1 1.308-.1c.432 0 .835.017 1.227.057l.081-.046a2.439 2.439 0 0 1 .356-1.248 3.835 3.835 0 0 1 1.412-1.253 7.114 7.114 0 0 1 1.556-.683 6.694 6.694 0 0 1 1.588-.3 5.939 5.939 0 0 1 1.5.076 3.959 3.959 0 0 1 1.27.454 2.043 2.043 0 0 1 .84.775 1.187 1.187 0 0 1 .106.887 2.287 2.287 0 0 1 -.6.932 5.6 5.6 0 0 1 -1.223.909 7.282 7.282 0 0 1 -2.089.794 12.876 12.876 0 0 1 -2.273.28l-.081.046a3.221 3.221 0 0 1 .065.7 1.99 1.99 0 0 1 -.168.705 2.372 2.372 0 0 1 -.568.726zm-4.2.816a4.873 4.873 0 0 0 2.15-.664 2.625 2.625 0 0 0 .922-.781 1.1 1.1 0 0 0 .228-.775 1.914 1.914 0 0 0 -.247-.816c-.142-.28-.305-.584-.478-.9a11.44 11.44 0 0 0 -2.214.1 5.552 5.552 0 0 0 -2.039.717c-.743.432-1.153.881-1.231 1.371-.1.489.187.921.832 1.294a3.566 3.566 0 0 0 2.077.454m4.416-5.865a1.366 1.366 0 0 0 -.267.705 1.739 1.739 0 0 0 .114.74 4.472 4.472 0 0 0 .388.781 7.874 7.874 0 0 0 3.668-.914 2.571 2.571 0 0 0 1.2-1.2c.149-.425-.044-.792-.59-1.107a2.861 2.861 0 0 0 -1.713-.327 4.65 4.65 0 0 0 -1.96.636 2.8 2.8 0 0 0 -.841.688" transform="translate(178.75 -46.449)"/><path d="m84.923 189.7a15.8 15.8 0 0 1 -2.507 1.738 25.007 25.007 0 0 1 -3.624 1.767 16.662 16.662 0 0 1 -3.024.857 8.653 8.653 0 0 1 -2.376.093 4.7 4.7 0 0 1 -1.715-.525 1.88 1.88 0 0 1 -.941-1 1.846 1.846 0 0 1 -.006-1.144l1.65-.267a1.235 1.235 0 0 0 .633 1.563 3.306 3.306 0 0 0 1.231.384 5.844 5.844 0 0 0 1.751-.093 12.689 12.689 0 0 0 2.281-.682 23.3 23.3 0 0 0 2.858-1.391 11.553 11.553 0 0 1 -2.344.063 4.084 4.084 0 0 1 -1.694-.454 2.077 2.077 0 0 1 -.8-.753 1.069 1.069 0 0 1 -.055-.916 2.655 2.655 0 0 1 .718-1.038 8.444 8.444 0 0 1 1.564-1.131 10.024 10.024 0 0 1 1.917-.857 9.273 9.273 0 0 1 1.931-.408 6.8 6.8 0 0 1 1.751.011 3.762 3.762 0 0 1 1.351.432 1.87 1.87 0 0 1 .883.951 1.585 1.585 0 0 1 -.155 1.272 5.2 5.2 0 0 1 -1.278 1.528zm-4.917.66a10.345 10.345 0 0 0 2.425-.146 6.409 6.409 0 0 0 2.232-2.07.981.981 0 0 0 -.5-1.416 2.413 2.413 0 0 0 -.9-.286 4.375 4.375 0 0 0 -1.137.017 6.256 6.256 0 0 0 -1.286.315 7.3 7.3 0 0 0 -1.3.588 3.5 3.5 0 0 0 -1.6 1.458c-.16.443.044.84.62 1.172a3.592 3.592 0 0 0 1.442.367" transform="translate(175.722 -48.166)"/><path d="m125.55 208.892a2.084 2.084 0 0 1 .86.81 1.225 1.225 0 0 1 .085.944 2.692 2.692 0 0 1 -.667 1.02 7.177 7.177 0 0 1 -1.393 1.02 10.625 10.625 0 0 1 -2.119.916 24.327 24.327 0 0 1 -2.714.653c-.995.191-2.081.356-3.268.5s-2.464.286-3.832.425c.282.128.565.269.857.4s.565.28.818.425l2.747 1.585-1.446.84-5.866-3.386.993-.577c1.68-.169 3.189-.321 4.527-.467s2.515-.3 3.54-.467a23.241 23.241 0 0 0 2.7-.584 8.792 8.792 0 0 0 1.958-.81 3.089 3.089 0 0 0 1.392-1.324c.179-.443-.036-.846-.661-1.207a3.2 3.2 0 0 0 -1.553-.362 12.724 12.724 0 0 0 -2.012.117l.337-.909a14.216 14.216 0 0 1 2.657-.139 4.581 4.581 0 0 1 2.06.577z" transform="translate(198.389 -34.88)"/><path d="m122.688 207.911-1.446.84-3.766-2.175-4.085 2.116a8.1 8.1 0 0 1 1.1.18 3.879 3.879 0 0 1 .979.4 2.507 2.507 0 0 1 .881.788 1.235 1.235 0 0 1 .166.957 2.627 2.627 0 0 1 -.658 1.083 7.108 7.108 0 0 1 -1.6 1.189 9.976 9.976 0 0 1 -4.2 1.352 7.614 7.614 0 0 1 -1.841-.074 4.329 4.329 0 0 1 -1.454-.49 3.378 3.378 0 0 1 -.859-.682 2.224 2.224 0 0 1 -.416-.694 2.087 2.087 0 0 1 -.095-.705 2.681 2.681 0 0 1 .136-.688l1.64-.332a5.842 5.842 0 0 0 -.119.582 1.846 1.846 0 0 0 .033.577 1.618 1.618 0 0 0 .305.549 2.413 2.413 0 0 0 .647.512 3.066 3.066 0 0 0 1.039.356 4.882 4.882 0 0 0 1.28.041 6.627 6.627 0 0 0 1.4-.286 7.374 7.374 0 0 0 1.386-.617 3.044 3.044 0 0 0 1.542-1.541c.128-.506-.117-.938-.753-1.3a3.337 3.337 0 0 0 -1.09-.4 12.55 12.55 0 0 0 -1.4-.122v-.666l6.534-3.48z" transform="translate(195.932 -36.693)"/><path d="m115.267 203.218a2.519 2.519 0 0 1 .87.759 1.271 1.271 0 0 1 .226.873 1.719 1.719 0 0 1 -.448.94 4.418 4.418 0 0 1 -1.193.938 6.394 6.394 0 0 1 -2.431.84 8.162 8.162 0 0 1 -2.447-.063l-.079.046a1.986 1.986 0 0 1 .365.7 1.3 1.3 0 0 1 -.035.781 2.308 2.308 0 0 1 -.509.821 4.691 4.691 0 0 1 -1.072.811 7.715 7.715 0 0 1 -1.778.764 8.215 8.215 0 0 1 -1.821.308 6.712 6.712 0 0 1 -1.691-.128 4.819 4.819 0 0 1 -1.442-.531 2.378 2.378 0 0 1 -1.256-1.376 2.513 2.513 0 0 1 .092-1.422l1.65-.326a2.71 2.71 0 0 0 -.084 1.207 1.677 1.677 0 0 0 .932 1.072 3.109 3.109 0 0 0 .968.361 4.648 4.648 0 0 0 1.118.089 5.148 5.148 0 0 0 1.156-.193 4.922 4.922 0 0 0 1.142-.489 3.591 3.591 0 0 0 .883-.7 1.153 1.153 0 0 0 .3-.792 1.4 1.4 0 0 0 -.418-.846 4.632 4.632 0 0 0 -1.2-.914l1.284-.747a6.189 6.189 0 0 0 1.433.617 4.91 4.91 0 0 0 1.36.193 4.659 4.659 0 0 0 1.246-.176 4.943 4.943 0 0 0 1.115-.471c.633-.367.992-.753 1.041-1.144s-.166-.734-.68-1.031a3.662 3.662 0 0 0 -1.473-.432 9.479 9.479 0 0 0 -1.9.017l.489-.951a12.2 12.2 0 0 1 2.355 0 4.912 4.912 0 0 1 1.932.595z" transform="translate(193.071 -38.215)"/><path d="m111.385 200.963-11.628 6.757 2.191 1.265-1.384.805-5.624-3.247 1.384-.805 2.363 1.365 9.591-5.575-1.778-1.028 1.074-.625a11.433 11.433 0 0 0 1.563.438 9.221 9.221 0 0 0 1.45.187z" transform="translate(189.855 -39.779)"/><path d="m99.406 201.442-1.475.857-4.342-2.507 1.475-.857z" transform="translate(189.07 -40.328)"/><path d="m100.391 194.63a2.554 2.554 0 0 1 .87.758 1.284 1.284 0 0 1 .226.875 1.719 1.719 0 0 1 -.448.938 4.475 4.475 0 0 1 -1.193.939 6.418 6.418 0 0 1 -2.431.838 8.162 8.162 0 0 1 -2.447-.063l-.081.046a1.99 1.99 0 0 1 .367.7 1.3 1.3 0 0 1 -.036.781 2.279 2.279 0 0 1 -.508.821 4.691 4.691 0 0 1 -1.072.811 7.962 7.962 0 0 1 -3.6 1.072 6.636 6.636 0 0 1 -1.691-.128 4.921 4.921 0 0 1 -1.442-.53 2.378 2.378 0 0 1 -1.256-1.376 2.519 2.519 0 0 1 .092-1.423l1.65-.326a2.434 2.434 0 0 0 -.084 1.207 1.678 1.678 0 0 0 .932 1.072 3.152 3.152 0 0 0 .968.362 4.73 4.73 0 0 0 1.118.087 5.178 5.178 0 0 0 1.156-.193 4.983 4.983 0 0 0 1.145-.489 3.552 3.552 0 0 0 .881-.7 1.138 1.138 0 0 0 .3-.792 1.391 1.391 0 0 0 -.416-.846 4.66 4.66 0 0 0 -1.2-.914l1.284-.747a6.133 6.133 0 0 0 1.433.618 5.094 5.094 0 0 0 1.36.191 4.66 4.66 0 0 0 1.246-.174 5.021 5.021 0 0 0 1.115-.473c.631-.367.992-.751 1.041-1.142s-.166-.735-.68-1.033a3.662 3.662 0 0 0 -1.473-.432 9.478 9.478 0 0 0 -1.9.017l.489-.949a12.2 12.2 0 0 1 2.355 0 4.861 4.861 0 0 1 1.93.597z" transform="translate(184.418 -43.21)"/><path d="m98.134 194.075-1.044.607c-1.528.245-2.926.53-4.172.845a37.63 37.63 0 0 0 -3.608 1.1 36.686 36.686 0 0 0 -3.424 1.441c-1.123.547-2.349 1.177-3.643 1.906l-1.121-.647c1.265-.7 2.46-1.313 3.594-1.832s2.249-.99 3.385-1.393 2.29-.758 3.477-1.061 2.493-.582 3.88-.838l-4.807-2.776 1.446-.84z" transform="translate(181.818 -45.182)"/><path d="m135.476 214.62a2.07 2.07 0 0 1 .849.805 1.192 1.192 0 0 1 .087.944 2.573 2.573 0 0 1 -.669 1.02 6.565 6.565 0 0 1 -1.384 1.027 10.256 10.256 0 0 1 -2.127.909 25.923 25.923 0 0 1 -2.7.658c-1.006.187-2.091.35-3.279.49s-2.464.285-3.832.425c.283.128.565.267.857.4s.566.28.818.425l2.747 1.586-1.444.84-5.868-3.388.993-.577c1.691-.163 3.2-.315 4.536-.46s2.515-.3 3.541-.467a24.905 24.905 0 0 0 2.684-.588 8.819 8.819 0 0 0 1.968-.805 3.073 3.073 0 0 0 1.392-1.324c.169-.449-.044-.851-.661-1.207a3.185 3.185 0 0 0 -1.552-.361 11.415 11.415 0 0 0 -2.012.115l.337-.909a14.337 14.337 0 0 1 2.656-.139 4.563 4.563 0 0 1 2.063.581z" transform="translate(204.157 -31.548)"/><path d="m124.2 215.755-1.475.857-4.342-2.507 1.475-.857z" transform="translate(203.49 -32.001)"/><path d="m164.848 231.843a2.518 2.518 0 0 1 .87.758 1.261 1.261 0 0 1 .237.881 1.735 1.735 0 0 1 -.448.939 4.487 4.487 0 0 1 -1.2.932 6.227 6.227 0 0 1 -2.431.84 7.959 7.959 0 0 1 -2.445-.063l-.081.046a1.962 1.962 0 0 1 .376.705 1.4 1.4 0 0 1 -.036.781 2.285 2.285 0 0 1 -.508.822 4.665 4.665 0 0 1 -1.074.81 8.062 8.062 0 0 1 -1.776.764 8.233 8.233 0 0 1 -1.82.31 6.988 6.988 0 0 1 -1.692-.13 4.9 4.9 0 0 1 -1.441-.53 2.348 2.348 0 0 1 -1.257-1.376 2.535 2.535 0 0 1 .084-1.428l1.659-.321a2.434 2.434 0 0 0 -.084 1.207 1.666 1.666 0 0 0 .922 1.068 3.029 3.029 0 0 0 .968.361 4.437 4.437 0 0 0 1.117.089 4.9 4.9 0 0 0 1.167-.187 4.839 4.839 0 0 0 1.134-.5 3.264 3.264 0 0 0 .883-.7 1.087 1.087 0 0 0 .307-.788 1.378 1.378 0 0 0 -.418-.845 4.651 4.651 0 0 0 -1.213-.922l1.284-.745a6.266 6.266 0 0 0 1.444.623 5.086 5.086 0 0 0 1.359.193 4.664 4.664 0 0 0 1.248-.176 4.95 4.95 0 0 0 1.115-.473c.631-.367.982-.758 1.039-1.142s-.174-.74-.69-1.038a3.764 3.764 0 0 0 -1.473-.432 10.509 10.509 0 0 0 -1.9.017l.487-.951a12.829 12.829 0 0 1 2.366.006 4.9 4.9 0 0 1 1.921.595z" transform="translate(221.914 -21.561)"/><path d="m172.268 236.537-1.446.84-3.757-2.17-4.084 2.116a7.45 7.45 0 0 1 1.1.182 3.731 3.731 0 0 1 .968.4 2.542 2.542 0 0 1 .89.794 1.262 1.262 0 0 1 .166.955 2.614 2.614 0 0 1 -.658 1.085 7.119 7.119 0 0 1 -1.6 1.189 10.488 10.488 0 0 1 -2.127.944 10.042 10.042 0 0 1 -2.072.408 7.542 7.542 0 0 1 -1.843-.076 4.412 4.412 0 0 1 -1.461-.5 3.247 3.247 0 0 1 -.849-.677 2.034 2.034 0 0 1 -.418-.693 1.964 1.964 0 0 1 -.095-.705 2.686 2.686 0 0 1 .138-.688l1.639-.334a2.891 2.891 0 0 0 -.117.584 1.427 1.427 0 0 0 .033.577 1.516 1.516 0 0 0 .305.547 2.36 2.36 0 0 0 .647.514 3.143 3.143 0 0 0 1.039.356 5.22 5.22 0 0 0 1.278.041 6.572 6.572 0 0 0 1.387-.293 6.642 6.642 0 0 0 1.386-.618c.894-.519 1.414-1.031 1.542-1.539s-.115-.938-.742-1.3a3.3 3.3 0 0 0 -1.09-.4 11.683 11.683 0 0 0 -1.4-.123v-.664l6.532-3.481z" transform="translate(224.776 -20.04)"/><path d="m169.964 243.547a7.821 7.821 0 0 1 -1.564 1.131 9.431 9.431 0 0 1 -1.928.851 10.208 10.208 0 0 1 -1.93.421 7.171 7.171 0 0 1 -1.732-.013 3.908 3.908 0 0 1 -1.381-.437 1.816 1.816 0 0 1 -.872-.957 1.619 1.619 0 0 1 .165-1.265 5.447 5.447 0 0 1 1.28-1.526 15.871 15.871 0 0 1 2.507-1.738 25.011 25.011 0 0 1 3.624-1.767 15.82 15.82 0 0 1 3.015-.862 8.393 8.393 0 0 1 2.385-.089 4.63 4.63 0 0 1 1.7.531 1.932 1.932 0 0 1 .952 1 2.006 2.006 0 0 1 -.014 1.142l-1.639.263a1.365 1.365 0 0 0 0-.875 1.381 1.381 0 0 0 -.628-.675 3.3 3.3 0 0 0 -1.24-.391 5.745 5.745 0 0 0 -1.751.081 12.907 12.907 0 0 0 -2.281.683 22.244 22.244 0 0 0 -2.872 1.4 10.809 10.809 0 0 1 2.355-.07 4.07 4.07 0 0 1 1.7.449 2 2 0 0 1 .8.764 1.177 1.177 0 0 1 .065.909 2.526 2.526 0 0 1 -.716 1.04zm-3.9 1.142a7.315 7.315 0 0 0 1.314-.6 3.5 3.5 0 0 0 1.6-1.458c.149-.449-.044-.84-.62-1.172a3.607 3.607 0 0 0 -1.452-.373 9.713 9.713 0 0 0 -2.434.164 6.142 6.142 0 0 0 -2.2 2.064.979.979 0 0 0 .49 1.411 2.385 2.385 0 0 0 .9.285 4.44 4.44 0 0 0 1.147-.011 7.072 7.072 0 0 0 1.257-.31" transform="translate(227.986 -18.042)"/><path d="m160.974 229.592-11.628 6.758 2.183 1.259-1.386.805-5.615-3.242 1.386-.8 2.363 1.363 9.591-5.574-1.778-1.027 1.074-.623a11.661 11.661 0 0 0 1.563.437 9.433 9.433 0 0 0 1.45.187z" transform="translate(218.7 -23.125)"/><path d="m145.172 229.232a8.263 8.263 0 0 1 -1.564 1.132 9.5 9.5 0 0 1 -1.926.851 10.217 10.217 0 0 1 -1.931.419 6.863 6.863 0 0 1 -1.741-.017 3.813 3.813 0 0 1 -1.371-.432 1.788 1.788 0 0 1 -.87-.955 1.618 1.618 0 0 1 .163-1.265 5.256 5.256 0 0 1 1.28-1.528 15.985 15.985 0 0 1 2.507-1.737 24.841 24.841 0 0 1 3.624-1.767 15.949 15.949 0 0 1 3.015-.864 8.444 8.444 0 0 1 2.385-.087 4.586 4.586 0 0 1 1.705.53 1.877 1.877 0 0 1 .941 1 2.027 2.027 0 0 1 0 1.148l-1.64.263a1.355 1.355 0 0 0 0-.875 1.418 1.418 0 0 0 -.637-.683 3.307 3.307 0 0 0 -1.231-.384 5.546 5.546 0 0 0 -1.751.082 12.881 12.881 0 0 0 -2.29.675 22 22 0 0 0 -2.861 1.406 10.339 10.339 0 0 1 2.344-.076 4.128 4.128 0 0 1 1.715.454 1.938 1.938 0 0 1 .789.759 1.158 1.158 0 0 1 .076.914 2.667 2.667 0 0 1 -.731 1.037zm-3.9 1.144a7.342 7.342 0 0 0 1.316-.6 3.376 3.376 0 0 0 1.591-1.463c.16-.443-.035-.834-.611-1.166a3.515 3.515 0 0 0 -1.45-.373 9.715 9.715 0 0 0 -2.436.163 6.2 6.2 0 0 0 -2.213 2.058.994.994 0 0 0 .5 1.417 2.368 2.368 0 0 0 .9.286 4.181 4.181 0 0 0 1.137-.017 6.566 6.566 0 0 0 1.267-.3" transform="translate(213.566 -26.368)"/><path d="m146.1 221.005-11.628 6.757 2.181 1.259-1.384.805-5.615-3.242 1.384-.8 2.363 1.363 9.593-5.574-1.778-1.027 1.074-.623a11.852 11.852 0 0 0 1.563.438 9.628 9.628 0 0 0 1.45.185z" transform="translate(210.047 -28.121)"/><path d="m133.133 223.082 1.3.753-1.344.781-1.3-.753-3.592 2.088-1.019-.588 3.59-2.088-4.291-2.478 1.113-.647 12.478-2.42 1.14.66zm4.2-3.586c.432-.239.822-.454 1.194-.647l-.071-.041c-.432.111-.884.21-1.357.31s-.935.2-1.387.3l-6.712 1.282 3.11 1.8 4.033-2.344c.372-.2.764-.419 1.185-.653" transform="translate(208.2 -29.395)"/><path d="m148.986 230.066-1.475.857-4.332-2.5 1.475-.857z" transform="translate(217.915 -23.673)"/><path d="m62.8 201.161.793-.461 2.343 1.353-5.769 3.352-.626-.361 4.976-2.892z" transform="translate(169.268 -39.301)"/><path d="m72.751 208.8-2.129 2.711-.726-.421 2.088-2.605-.887-.514-3.297 1.91-.636-.367 7.794-4.53 1.556.9a1.959 1.959 0 0 1 .576.471.671.671 0 0 1 .185.536 1.175 1.175 0 0 1 -.31.6 4.006 4.006 0 0 1 -.892.671 5.263 5.263 0 0 1 -1.767.675 3.852 3.852 0 0 1 -1.555-.037zm-.024-.816a2.267 2.267 0 0 0 1.28.3 3.267 3.267 0 0 0 1.436-.482c.512-.3.772-.566.781-.805-.013-.239-.2-.467-.6-.694l-.829-.478-2.895 1.675.829.479" transform="translate(173.702 -36.809)"/><path d="m69.273 203.439c.444.256.568.558.378.9a3.68 3.68 0 0 1 -1.423 1.189l-3.59 2.088-.626-.362 3.461-2.012a2.861 2.861 0 0 0 1.012-.821c.13-.228.059-.432-.255-.612a1.3 1.3 0 0 0 -.373-.134l-.475-.052a5.685 5.685 0 0 0 -.6.035c-.233.017-.484.046-.775.087l-4.024 2.338-.615-.356 5.768-3.352.516.3-.933.6.03.017a10.118 10.118 0 0 1 1.439-.111 2.21 2.21 0 0 1 1.085.258z" transform="translate(170.326 -38.324)"/><path d="m63.5 200.1c.444.256.568.558.388.909a3.879 3.879 0 0 1 -1.438 1.191l-3.59 2.088-.626-.362 3.461-2.012a2.9 2.9 0 0 0 1.022-.816c.13-.228.049-.437-.255-.612a1.5 1.5 0 0 0 -.383-.139l-.463-.047c-.182 0-.383.013-.614.03s-.484.046-.766.093l-4.022 2.338-.626-.362 5.768-3.352.516.3-.922.606.03.017a9.783 9.783 0 0 1 1.428-.117 2.235 2.235 0 0 1 1.092.247z" transform="translate(166.965 -40.265)"/><path d="m61.311 199.649a10.7 10.7 0 0 1 -1.523 1.05 14.562 14.562 0 0 1 -1.838.9 11.392 11.392 0 0 1 -1.678.519 5.477 5.477 0 0 1 -1.428.117 2.374 2.374 0 0 1 -1.049-.28.912.912 0 0 1 -.5-.612 1.232 1.232 0 0 1 .207-.822 4.018 4.018 0 0 1 .89-.974 10.089 10.089 0 0 1 1.555-1.066 12.708 12.708 0 0 1 1.816-.892 9.151 9.151 0 0 1 1.658-.508 5.678 5.678 0 0 1 1.4-.111 2.425 2.425 0 0 1 1.049.291.9.9 0 0 1 .486.607 1.114 1.114 0 0 1 -.176.816 4.576 4.576 0 0 1 -.869.965zm-3.6 1.387a12.56 12.56 0 0 0 1.416-.716 10.449 10.449 0 0 0 1.213-.81 4.2 4.2 0 0 0 .731-.718.961.961 0 0 0 .228-.6.551.551 0 0 0 -.3-.419 1.532 1.532 0 0 0 -.737-.18 4.366 4.366 0 0 0 -1.025.139 7.949 7.949 0 0 0 -1.235.425 12.567 12.567 0 0 0 -1.4.705 10.463 10.463 0 0 0 -1.234.822 4.26 4.26 0 0 0 -.761.736 1.017 1.017 0 0 0 -.248.6.51.51 0 0 0 .294.438 1.576 1.576 0 0 0 .745.163 4 4 0 0 0 1.047-.139 10.235 10.235 0 0 0 1.265-.444" transform="translate(165.627 -41.472)"/><path d="m64.172 201.34c-.152-.089-.2-.2-.163-.327s.169-.263.4-.4a1.707 1.707 0 0 1 .7-.245.913.913 0 0 1 .565.093.269.269 0 0 1 .152.32c-.04.141-.19.275-.421.408a1.575 1.575 0 0 1 -.682.234.962.962 0 0 1 -.551-.083z" transform="translate(171.856 -39.496)"/><path d="m91.951 219.117a8.447 8.447 0 0 1 -1.1.758 8.75 8.75 0 0 1 -1.455.683 7.309 7.309 0 0 1 -1.346.361 4.171 4.171 0 0 1 -1.158.041 2.115 2.115 0 0 1 -.837-.239.776.776 0 0 1 -.365-.456 1.139 1.139 0 0 1 0-.664l-.723.327-.5-.286 8.457-4.916.626.362-2.308 1.341-1.134.636a5.894 5.894 0 0 1 1.238-.03 2.237 2.237 0 0 1 .9.239.875.875 0 0 1 .456.508.835.835 0 0 1 -.108.623 2.89 2.89 0 0 1 -.643.712zm-2.814.9a7.1 7.1 0 0 0 1.053-.508 6.725 6.725 0 0 0 .8-.536 2.639 2.639 0 0 0 .479-.5.594.594 0 0 0 .119-.443.613.613 0 0 0 -.324-.362 1.726 1.726 0 0 0 -.726-.174 5.37 5.37 0 0 0 -1.227.059l-2.869 1.667a.837.837 0 0 0 .014.612.8.8 0 0 0 .313.356 1.47 1.47 0 0 0 .6.174 3.368 3.368 0 0 0 .816-.063 4.813 4.813 0 0 0 .944-.28" transform="translate(183.763 -31.142)"/><path d="m88.674 216.673a5.577 5.577 0 0 1 -1.142.827 7.915 7.915 0 0 1 -1.427.666 6.7 6.7 0 0 1 -1.346.315 4.325 4.325 0 0 1 -1.167.011 2.525 2.525 0 0 1 -.9-.286 1.1 1.1 0 0 1 -.5-.519.852.852 0 0 1 .006-.682 2.13 2.13 0 0 1 .539-.781 6.177 6.177 0 0 1 1.144-.827 8.549 8.549 0 0 1 1.425-.666 6.743 6.743 0 0 1 1.357-.319 4.206 4.206 0 0 1 1.178-.006 2.332 2.332 0 0 1 .906.28 1.054 1.054 0 0 1 .487.525.881.881 0 0 1 -.017.675 2.186 2.186 0 0 1 -.543.787zm-2.773.933a6.15 6.15 0 0 0 .984-.479 4.773 4.773 0 0 0 .822-.571 1.857 1.857 0 0 0 .47-.554.637.637 0 0 0 .077-.478.591.591 0 0 0 -.313-.369 1.478 1.478 0 0 0 -.645-.185 3.082 3.082 0 0 0 -.826.046 4.717 4.717 0 0 0 -.955.274 6.463 6.463 0 0 0 -.984.479 4.648 4.648 0 0 0 -.821.571 1.771 1.771 0 0 0 -.46.547.576.576 0 0 0 .247.851 1.58 1.58 0 0 0 .634.182 3.155 3.155 0 0 0 .826-.047 4.566 4.566 0 0 0 .944-.267" transform="translate(182.404 -31.351)"/><path d="m84.907 215.605c-.22.128-.4.221-.561.3l-2.9-1.673a2.379 2.379 0 0 0 -1.061 1.107c-.109.356.044.653.448.887a2.4 2.4 0 0 0 .747.267 7.1 7.1 0 0 0 .916.076l-.419.5a6.941 6.941 0 0 1 -1.1-.087 2.941 2.941 0 0 1 -1-.345 1.321 1.321 0 0 1 -.568-.571.945.945 0 0 1 -.033-.705 1.922 1.922 0 0 1 .519-.792 4.782 4.782 0 0 1 1.112-.834 7.34 7.34 0 0 1 2.814-.957 4.9 4.9 0 0 1 1.2-.006 2.572 2.572 0 0 1 .908.28 1.086 1.086 0 0 1 .506.525.809.809 0 0 1 -.017.63 2.237 2.237 0 0 1 -.519.688 5.961 5.961 0 0 1 -.992.71zm-2.828-1.749 2.354 1.359a2.427 2.427 0 0 0 1.071-.962c.12-.291.008-.543-.335-.74a1.5 1.5 0 0 0 -.565-.176 3.041 3.041 0 0 0 -.735-.017 5.729 5.729 0 0 0 -.854.169 5.01 5.01 0 0 0 -.935.367" transform="translate(180.775 -32.295)"/><path d="m83.709 211.773c.444.256.566.56.387.909a3.878 3.878 0 0 1 -1.433 1.183l-3.592 2.088-.626-.361 3.462-2.012a2.938 2.938 0 0 0 1.022-.816c.13-.228.047-.438-.255-.612a1.435 1.435 0 0 0 -.384-.141l-.462-.046a5.775 5.775 0 0 0 -.615.028c-.231.017-.482.047-.764.093l-4.022 2.338-.626-.361 5.768-3.353.516.3-.933.6.03.017a10.975 10.975 0 0 1 1.439-.111 2.258 2.258 0 0 1 1.088.257z" transform="translate(178.723 -33.477)"/><path d="m83.632 208.98.626.361-8.458 4.915-.525-.3.712-.473a6.869 6.869 0 0 1 -1.2.041 2.057 2.057 0 0 1 -.927-.221.926.926 0 0 1 -.456-.5.824.824 0 0 1 .076-.642 2.652 2.652 0 0 1 .62-.734 7.9 7.9 0 0 1 1.174-.81 7.7 7.7 0 0 1 1.4-.653 6.766 6.766 0 0 1 1.327-.338 4.458 4.458 0 0 1 1.137-.041 2.006 2.006 0 0 1 .848.234.708.708 0 0 1 .394.471 1.278 1.278 0 0 1 -.025.612l1.053-.636zm-6.912 4.02 2.869-1.667a.952.952 0 0 0 .036-.595.714.714 0 0 0 -.334-.367 1.313 1.313 0 0 0 -.6-.163 3.777 3.777 0 0 0 -.826.046 5.619 5.619 0 0 0 -.935.263 6.427 6.427 0 0 0 -.993.473 3.691 3.691 0 0 0 -1.343 1.107.516.516 0 0 0 .226.805 3.092 3.092 0 0 0 1.9.1" transform="translate(177.309 -34.484)"/><path d="m76.242 210.6c-.22.128-.4.221-.561.3l-2.9-1.673a2.372 2.372 0 0 0 -1.061 1.107c-.1.362.044.653.459.892a2.345 2.345 0 0 0 .735.263 6.228 6.228 0 0 0 .916.076l-.419.5a6.941 6.941 0 0 1 -1.1-.087 2.877 2.877 0 0 1 -1-.345 1.253 1.253 0 0 1 -.557-.565.912.912 0 0 1 -.044-.712 1.912 1.912 0 0 1 .519-.792 4.828 4.828 0 0 1 1.112-.835 7.966 7.966 0 0 1 1.436-.647 7.687 7.687 0 0 1 1.378-.308 4.663 4.663 0 0 1 1.207 0 2.39 2.39 0 0 1 .908.28 1.1 1.1 0 0 1 .506.525.8.8 0 0 1 -.027.623 2.238 2.238 0 0 1 -.519.688 6.056 6.056 0 0 1 -.988.71zm-2.817-1.743 2.342 1.352a2.427 2.427 0 0 0 1.071-.962c.12-.293.008-.543-.335-.74a1.475 1.475 0 0 0 -.565-.176 2.976 2.976 0 0 0 -.726-.011 5.449 5.449 0 0 0 -.864.163 5.767 5.767 0 0 0 -.924.373" transform="translate(175.735 -35.204)"/><path d="m141.467 243.4-6.762 3.929 1.272.735-.811.471-3.282-1.895.811-.471 1.384.8 5.579-3.242-1.041-.6.633-.367a6.506 6.506 0 0 0 .908.256 6.188 6.188 0 0 0 .845.117z" transform="translate(211.345 -14.838)"/><path d="m143.945 244.667a1.252 1.252 0 0 1 .5.473.756.756 0 0 1 .054.554 1.568 1.568 0 0 1 -.4.595 4 4 0 0 1 -.8.595 6.531 6.531 0 0 1 -1.235.53 13.611 13.611 0 0 1 -1.577.38c-.595.111-1.227.209-1.912.291s-1.428.163-2.232.245c.171.076.332.157.5.233s.323.164.475.251l1.594.921-.841.49-3.415-1.971.582-.338c.987-.093 1.862-.18 2.637-.267s1.468-.176 2.061-.275a13.961 13.961 0 0 0 1.569-.337 5.14 5.14 0 0 0 1.134-.473 1.827 1.827 0 0 0 .822-.77c.1-.256-.033-.5-.387-.7a1.9 1.9 0 0 0 -.9-.215 7.509 7.509 0 0 0 -1.188.07l.209-.531a7.967 7.967 0 0 1 1.541-.074 2.613 2.613 0 0 1 1.209.323z" transform="translate(212.956 -13.921)"/><path d="m149.863 246.688-12.828 4.565-.566-.327 12.828-4.565z" transform="translate(214.012 -12.74)"/><path d="m148.009 250.752a.251.251 0 0 1 .122.315.96.96 0 0 1 -.451.414 1.9 1.9 0 0 1 -.713.263.932.932 0 0 1 -.544-.071.236.236 0 0 1 -.122-.315.942.942 0 0 1 .44-.419 1.905 1.905 0 0 1 .724-.256.863.863 0 0 1 .544.069z" transform="translate(219.719 -10.234)"/><path d="m149.726 248.005a1.252 1.252 0 0 1 .5.473.73.73 0 0 1 .043.547 1.525 1.525 0 0 1 -.389.6 4.129 4.129 0 0 1 -.811.588 5.919 5.919 0 0 1 -1.235.53 14.673 14.673 0 0 1 -1.567.386c-.593.111-1.227.209-1.911.291s-1.43.163-2.233.245c.161.07.323.152.5.233.161.082.323.164.475.251l1.594.921-.841.49-3.424-1.977.582-.337c.985-.093 1.862-.182 2.646-.263s1.458-.182 2.063-.275a13.717 13.717 0 0 0 1.558-.343 5.238 5.238 0 0 0 1.145-.467 1.79 1.79 0 0 0 .81-.775c.1-.256-.022-.49-.386-.7a2 2 0 0 0 -.9-.215 7.407 7.407 0 0 0 -1.178.076l.2-.536a8.4 8.4 0 0 1 1.539-.076 2.658 2.658 0 0 1 1.22.333z" transform="translate(216.313 -11.982)"/><path d="m152.635 251.026a7.2 7.2 0 0 1 -2.445 1.96 12.2 12.2 0 0 1 -3.394 1.435 3.216 3.216 0 0 1 -2.295-.141c-.546-.315-.63-.758-.259-1.335a7.437 7.437 0 0 1 2.464-1.971 11.794 11.794 0 0 1 3.374-1.422 3.255 3.255 0 0 1 2.287.157.824.824 0 0 1 .268 1.317zm-5.753 2.828a10.494 10.494 0 0 0 2.722-1.207 11.605 11.605 0 0 0 1.324-.864 3.565 3.565 0 0 0 .731-.705.762.762 0 0 0 .207-.541.563.563 0 0 0 -.294-.368 1.468 1.468 0 0 0 -.634-.169 3.591 3.591 0 0 0 -.946.117 8.384 8.384 0 0 0 -1.215.425 16.066 16.066 0 0 0 -1.487.77 7.043 7.043 0 0 0 -2.074 1.58c-.289.425-.278.734.065.933a2.287 2.287 0 0 0 1.6.028" transform="translate(218.401 -10.957)"/><path d="m205.671 216.274c5.463 3.154 5.492 8.263.065 11.417s-14.246 3.154-19.709 0c-2.806-1.62-4.177-3.756-4.114-5.877a19.866 19.866 0 0 0 9.553-2.361c2.64-1.534 3.987-3.532 4.046-5.541a20.3 20.3 0 0 1 10.159 2.362z" opacity=".6" transform="translate(240.444 -31.617)"/><path d="m195.511 213.91c-.059 2.009-1.406 4.006-4.046 5.541a19.866 19.866 0 0 1 -9.553 2.361c.062-2.009 1.409-4 4.051-5.539a19.857 19.857 0 0 1 9.548-2.363z" transform="translate(240.445 -31.617)"/><path d="m196.652 211.067c2.8 1.616 4.172 3.752 4.109 5.874a19.857 19.857 0 0 0 -9.549 2.363c-2.641 1.534-3.989 3.53-4.051 5.539a20.282 20.282 0 0 1 -10.154-2.361c-5.463-3.154-5.5-8.267-.074-11.421s14.256-3.149 19.719.006z" transform="translate(235.195 -34.648)"/><path d="m112.632 168.159a.918.918 0 0 1 .517.625 1.114 1.114 0 0 1 -.108.717l-.976.158a.984.984 0 0 0 .068-.555.682.682 0 0 0 -.365-.443 2.137 2.137 0 0 0 -.867-.244 4.329 4.329 0 0 0 -1.137.074 7.538 7.538 0 0 0 -1.306.4 10.857 10.857 0 0 0 -1.414.694 8.5 8.5 0 0 0 -1.213.834 3.277 3.277 0 0 0 -.691.764.891.891 0 0 0 -.138.664.811.811 0 0 0 .425.5 1.738 1.738 0 0 0 .827.221 5.624 5.624 0 0 0 1.158-.076l-.239.56a6.276 6.276 0 0 1 -1.5.1 2.628 2.628 0 0 1 -1.159-.321 1.24 1.24 0 0 1 -.6-.66 1.149 1.149 0 0 1 .106-.856 3.268 3.268 0 0 1 .81-1.009 8.852 8.852 0 0 1 1.534-1.09 12.009 12.009 0 0 1 1.857-.881 8.971 8.971 0 0 1 1.719-.473 5.628 5.628 0 0 1 1.509-.059 2.934 2.934 0 0 1 1.183.356z" transform="translate(195.053 -58.452)"/><path d="m114.419 171.1a1.68 1.68 0 0 1 .332.25.772.772 0 0 1 .153.31l-.974.414a2.82 2.82 0 0 0 -.172-.286 1.382 1.382 0 0 0 -.323-.234 2.381 2.381 0 0 0 -1.17-.244 8.024 8.024 0 0 0 -1.99.326l-3.391 1.971-.626-.362 5.778-3.358.516.3-1.314.822.03.017a7.4 7.4 0 0 1 1.811-.232 2.806 2.806 0 0 1 1.34.306z" transform="translate(196.439 -57.224)"/><path d="m132.846 179.83a.906.906 0 0 1 .516.623 1.192 1.192 0 0 1 -.106.718l-.976.157a.991.991 0 0 0 .068-.554.675.675 0 0 0 -.365-.443 2.061 2.061 0 0 0 -.867-.245 4.333 4.333 0 0 0 -1.137.076 7.4 7.4 0 0 0 -1.306.4 10.957 10.957 0 0 0 -1.416.693 8.965 8.965 0 0 0 -1.213.834 3.335 3.335 0 0 0 -.69.764.891.891 0 0 0 -.138.664.78.78 0 0 0 .425.5 1.757 1.757 0 0 0 .827.223 5.6 5.6 0 0 0 1.156-.076l-.237.56a6.27 6.27 0 0 1 -1.5.1 2.6 2.6 0 0 1 -1.159-.321 1.067 1.067 0 0 1 -.5-1.522 3.539 3.539 0 0 1 .819-1 8.937 8.937 0 0 1 1.534-1.09 12.869 12.869 0 0 1 1.847-.886 8.883 8.883 0 0 1 1.727-.467 5.578 5.578 0 0 1 1.51-.059 2.917 2.917 0 0 1 1.181.351z" transform="translate(206.811 -51.663)"/><path d="m134.115 183.183a3.165 3.165 0 0 1 -1.351 1.219l-3.541 2.058-.516-.3.732-.484-.021-.013a9.173 9.173 0 0 1 -1.34-.017 2.572 2.572 0 0 1 -1.047-.291 1.049 1.049 0 0 1 -.375-.343.674.674 0 0 1 -.082-.421.933.933 0 0 1 .248-.449 2.213 2.213 0 0 1 .592-.46 4.024 4.024 0 0 1 .993-.414 3.79 3.79 0 0 1 1.1-.087 5.575 5.575 0 0 1 1.268.234 11.538 11.538 0 0 1 1.484.554 2.888 2.888 0 0 0 .5-.362 1.147 1.147 0 0 0 .289-.356.509.509 0 0 0 .019-.361.866.866 0 0 0 -.345-.327 2.342 2.342 0 0 0 -.917-.274 8.728 8.728 0 0 0 -1.058-.076l.421-.525c.18 0 .383 0 .614.017s.443.036.664.071a4.474 4.474 0 0 1 .636.146 2.589 2.589 0 0 1 .555.228c.514.299.663.642.478 1.033zm-4.024 2.047 1.525-.886a8.95 8.95 0 0 0 -1.191-.456 5.018 5.018 0 0 0 -.957-.193 2.734 2.734 0 0 0 -.754.054 2.014 2.014 0 0 0 -.612.239 1.04 1.04 0 0 0 -.351.285.4.4 0 0 0 -.109.275l.092.239a.8.8 0 0 0 .253.215 2.023 2.023 0 0 0 .846.234 8.4 8.4 0 0 0 1.259-.006" transform="translate(208.254 -50.358)"/><path d="m137.518 184.437a1.511 1.511 0 0 1 .334.25.693.693 0 0 1 .153.308l-.974.414a2.9 2.9 0 0 0 -.172-.285 1.271 1.271 0 0 0 -.313-.228 2.414 2.414 0 0 0 -1.18-.251 8.05 8.05 0 0 0 -1.991.327l-3.391 1.971-.626-.362 5.779-3.358.516.3-1.3.827.021.013a7.4 7.4 0 0 1 1.811-.234 2.8 2.8 0 0 1 1.333.308z" transform="translate(209.876 -49.466)"/><path d="m142.712 184.684.615.354-8.457 4.916-.516-.3.712-.473a7.5 7.5 0 0 1 -1.2.041 2.057 2.057 0 0 1 -.927-.221.964.964 0 0 1 -.465-.5.858.858 0 0 1 .087-.636 2.4 2.4 0 0 1 .62-.734 7.119 7.119 0 0 1 1.172-.811 7.766 7.766 0 0 1 1.406-.652 7.35 7.35 0 0 1 1.316-.345 4.916 4.916 0 0 1 1.158-.041 2.122 2.122 0 0 1 .837.239.769.769 0 0 1 .4.467 1.48 1.48 0 0 1 -.036.618l1.053-.636zm-6.912 4.016 2.88-1.673a.932.932 0 0 0 .027-.588.741.741 0 0 0 -.335-.367 1.4 1.4 0 0 0 -.614-.169 3.123 3.123 0 0 0 -.816.052 5.626 5.626 0 0 0 -.935.263 6.431 6.431 0 0 0 -.993.473 3.714 3.714 0 0 0 -1.343 1.107.512.512 0 0 0 .217.8 3.132 3.132 0 0 0 1.912.1" transform="translate(211.674 -48.617)"/><path d="m115.108 174.636c-.21.123-.4.223-.552.3l-2.9-1.672a2.324 2.324 0 0 0 -1.061 1.107c-.119.361.033.658.438.892a2.426 2.426 0 0 0 .747.269 7.108 7.108 0 0 0 .916.074l-.41.5a7.231 7.231 0 0 1 -1.107-.082 2.915 2.915 0 0 1 -1-.343 1.319 1.319 0 0 1 -.566-.573.994.994 0 0 1 -.035-.705 2.014 2.014 0 0 1 .519-.792 4.841 4.841 0 0 1 1.114-.834 7.2 7.2 0 0 1 1.435-.647 6.867 6.867 0 0 1 1.378-.31 4.831 4.831 0 0 1 1.2 0 2.5 2.5 0 0 1 .906.28 1.083 1.083 0 0 1 .506.524.762.762 0 0 1 -.016.63 2.152 2.152 0 0 1 -.52.688 5.88 5.88 0 0 1 -.992.694zm-2.809-1.748 2.344 1.352a2.4 2.4 0 0 0 1.061-.957c.119-.291.006-.543-.337-.74a1.6 1.6 0 0 0 -.554-.18 3.423 3.423 0 0 0 -.745-.011 4.675 4.675 0 0 0 -.856.168 4.894 4.894 0 0 0 -.914.369" transform="translate(198.344 -56.126)"/><path d="m122.5 173.013.626.362-8.457 4.914-.527-.3.713-.471a7.717 7.717 0 0 1 -1.2.041 2.062 2.062 0 0 1 -.927-.221 1 1 0 0 1 -.465-.5.857.857 0 0 1 .087-.636 2.423 2.423 0 0 1 .62-.735 7.124 7.124 0 0 1 1.172-.81 7.668 7.668 0 0 1 1.406-.653 7.374 7.374 0 0 1 1.316-.343 5.2 5.2 0 0 1 1.158-.041 2.114 2.114 0 0 1 .837.239.765.765 0 0 1 .4.467 1.482 1.482 0 0 1 -.036.618l1.053-.636zm-6.912 4.017 2.879-1.673a.921.921 0 0 0 .027-.588.749.749 0 0 0 -.334-.369 1.437 1.437 0 0 0 -.615-.168 3.441 3.441 0 0 0 -.815.052 5.394 5.394 0 0 0 -.935.263 6.433 6.433 0 0 0 -.995.471 3.745 3.745 0 0 0 -1.343 1.109.513.513 0 0 0 .217.8 3.147 3.147 0 0 0 1.914.1" transform="translate(199.916 -55.406)"/><path d="m118.988 175.2.8-.466 2.353 1.359-5.779 3.358-.626-.361 4.976-2.892z" transform="translate(201.954 -54.406)"/></g><path d="m100.754 180.883-1.114.647-7.725-4.46-.555-.321 1.114-.647.555.321z" transform="translate(187.773 -53.608)"/><path d="m125.843 176.465-1.616.939 1.808 1.044-.8.467-1.808-1.044-2.739 1.591a5.187 5.187 0 0 0 -.631.425 1.205 1.205 0 0 0 -.34.373.358.358 0 0 0 -.028.345.928.928 0 0 0 .354.319 2.33 2.33 0 0 0 .555.228 4.424 4.424 0 0 0 .595.134l-.582.49a6.65 6.65 0 0 1 -.8-.182 3.025 3.025 0 0 1 -.707-.291 1.153 1.153 0 0 1 -.506-.49.644.644 0 0 1 .059-.536 2.031 2.031 0 0 1 .509-.577 8.742 8.742 0 0 1 .9-.606l2.728-1.586-1.041-.6.743-.432 1.12.577 1.707-.887z" fill="#dee7f7" transform="translate(203.598 -53.57)"/><path d="m98.058 182.45-1.114.647-7.725-4.46-.555-.321 1.114-.647.555.321z" transform="translate(186.205 -52.698)"/><path d="m125.269 185.98c1.936 1.117 2.577 2.711 1.92 4.141l-1.367-.788c.161-.965-.4-1.963-1.677-2.7l-17.683-10.21a8.636 8.636 0 0 0 -4.668-.963l-1.008-.582-1.113.648.354.2a6.933 6.933 0 0 0 -1.738.693l-1.575.916-.555-.321-1.113.647.555.321-3.151 1.832-.55-.314-1.113.647.555.321-3.049 1.771a4.759 4.759 0 0 0 -.584.4l-.443-.256-1.123.653.792.457c-.713 1.18-.258 2.548 1.373 3.489l17.683 10.21a9.056 9.056 0 0 0 6.028.783l.965.558 1.123-.653-.614-.356a6.081 6.081 0 0 0 .682-.339l3.049-1.771.565.326 1.115-.647-.566-.327 3.151-1.83.565.326 1.113-.647-.565-.326 1.575-.916a4.025 4.025 0 0 0 1.191-1.009l.838.484.879-.511a4.648 4.648 0 0 1 -1.778 1.689l-10 5.813a11.511 11.511 0 0 1 -10.428 0l-17.689-10.216c-2.879-1.661-2.893-4.365-.024-6.034l10-5.813a11.516 11.516 0 0 1 10.418-.006z" transform="translate(184.087 -54.524)"/><path d="m117.978 186.3a2.729 2.729 0 0 1 1.678 2.7l-24.029-13.877a8.636 8.636 0 0 1 4.668.963z" fill="#fed070" transform="translate(190.255 -54.188)"/><path d="m121.928 190.066-.235.136-.879.511-.84-.485-25.333-14.628-.355-.2 1.114-.647 1.008.582 24.027 13.865 1.365.788z" transform="translate(189.475 -54.395)"/><path d="m113.226 188.084-1.114.647-.566-.327-9.442-5.451 1.114-.647 9.442 5.451z" transform="translate(194.024 -50)"/><path d="m110.53 189.651-1.114.647-.565-.326-9.442-5.451 1.114-.647 9.442 5.451z" transform="translate(192.456 -49.089)"/><path d="m121.611 191.84-9.443-5.452-1.113.647 9.443 5.452-3.151 1.83-9.443-5.45-1.113.647 9.443 5.45-3.049 1.773a6.083 6.083 0 0 1 -.682.339l-25.785-14.886a4.757 4.757 0 0 1 .584-.4l3.049-1.771 7.725 4.46 1.113-.647-7.725-4.46 3.151-1.832 7.725 4.46 1.113-.647-7.725-4.46 1.575-.916a6.933 6.933 0 0 1 1.738-.693l25.335 14.627a4.025 4.025 0 0 1 -1.191 1.009z" fill="#fed070" transform="translate(185.073 -54.082)"/><path d="m87.722 183.681c-1.631-.941-2.086-2.309-1.373-3.489l25.084 14.482a9.057 9.057 0 0 1 -6.028-.783z" fill="#fed070" transform="translate(184.669 -51.23)"/><path d="m113.693 194.987-1.124.653-.965-.557-25.083-14.483-.793-.458 1.124-.653.443.256 25.784 14.886z" transform="translate(184.497 -51.638)"/><path d="m120.359 175.375c-.15-.089-.2-.2-.163-.327a.882.882 0 0 1 .411-.4 1.8 1.8 0 0 1 .693-.239.87.87 0 0 1 .565.093c.141.081.2.187.152.321a.783.783 0 0 1 -.4.408 1.731 1.731 0 0 1 -.7.233.929.929 0 0 1 -.558-.089z" fill="#dee7f7" transform="translate(204.539 -54.6)"/><g filter="url(#c)" transform="translate(.002 .002)"><path d="m318.967 131.136c3.9 2.249 3.918 5.923.046 8.174l-95.672 55.6a15.594 15.594 0 0 1 -14.113 0l-168.967-97.555c-3.9-2.249-3.929-5.928-.055-8.179l95.672-55.6a15.613 15.613 0 0 1 14.123 0z" fill="#dee7f7" transform="translate(123.56 208.76)"/></g><path d="m37.314 73.251.008-2.578c0 1.493.977 2.989 2.942 4.123l-.006 2.58c-1.965-1.134-2.947-2.63-2.944-4.125z" fill="#6e8196" transform="translate(123.558 229.199)"/><path d="m218.312 97.24-.008 2.578c0 1.471-.966 2.94-2.891 4.059l.008-2.578c1.923-1.119 2.886-2.588 2.891-4.059z" fill="#c3cee0" transform="translate(227.153 244.652)"/><path d="m250.605 99.806-.007 2.579-95.673 55.6.007-2.579z" fill="#8999ad" transform="translate(191.969 246.144)"/><path d="m208.149 170.834-.007 2.579-168.967-97.554.007-2.579z" fill="#6e8196" transform="translate(124.64 230.716)"/><path d="m318.967 131.136c3.9 2.249 3.918 5.923.046 8.174l-95.672 55.6a15.594 15.594 0 0 1 -14.113 0l-168.967-97.555c-3.9-2.249-3.929-5.928-.055-8.179l95.672-55.6a15.613 15.613 0 0 1 14.123 0z" fill="#dee7f7" transform="translate(123.561 206.641)"/><path d="m160.123 134.958-.008 2.578a15.59 15.59 0 0 1 -14.112 0l.006-2.578a15.594 15.594 0 0 0 14.114 0z" fill="#8999ad" transform="translate(186.779 266.592)"/><path d="m158.92 96.144c.092.286-.239.56-.721.606l-29.908 3.143a2.265 2.265 0 0 1 -1.321-.239l-3.695-2.134a.54.54 0 0 1 -.255-.274c-.082-.293.25-.554.742-.607l9.175-.909 7.8-9.235.171-.146a1.411 1.411 0 0 1 1.278.006l3.625 2.093c.475.275.577.694.267 1.026l-5 5.411 12.551-1.385a2.261 2.261 0 0 1 1.341.24l3.695 2.134a.558.558 0 0 1 .255.27z" fill="#253b80" transform="translate(173.404 238.23)"/><path d="m138.784 80.288c-.174 1.248-1.5 2.4-3.946 3.427a17.089 17.089 0 0 1 -15.98-.834l-2.423-1.4a2.4 2.4 0 0 0 -1.953-.092l-6.105 2.588a2.412 2.412 0 0 1 -1.953-.093l-3.666-2.116-.081-.059c-.3-.233-.214-.565.188-.728l22.653-9.574a2.367 2.367 0 0 1 1.944.087l7.674 4.432c2.574 1.487 3.832 2.992 3.648 4.362zm-9.9.3c1.115-.473 1.686-.946 1.753-1.452.106-.846-1.2-1.6-2.589-2.4l-.525-.3a1.434 1.434 0 0 0 -1.169-.059l-5.914 2.5 1.161.671c2.029 1.172 4.13 2.384 7.284 1.044" fill="#253b80" transform="translate(161.473 229.53)"/><path d="m143.765 87.936c.293.228.2.56-.2.724l-14.48 6.11a2.369 2.369 0 0 1 -1.953-.082l-3.312-1.912-.092-.063c-.283-.234-.2-.56.207-.729l1.175-.5a14.413 14.413 0 0 1 -7.186-1.719c-1.9-1.1-2.953-2.344-2.77-3.749.212-1.539 1.754-3.008 4.245-4.059 4.96-2.1 11.485-1.865 15.543.478 1.768 1.02 3.163 2.268 2.817 3.394l-.119.361 1.186-.5a1.452 1.452 0 0 1 1.174.06l3.676 2.123zm-12.324 1.1c1.174-.5 1.865-1.155 1.961-1.854s-.41-1.387-1.46-1.994a9.147 9.147 0 0 0 -7.632-.337c-1.185.489-1.885 1.142-1.972 1.824-.108.694.4 1.382 1.471 2a9.081 9.081 0 0 0 7.632.361" fill="#253b80" transform="translate(168.826 234.929)"/><path d="m178.359 107.909c.3.233.225.56-.187.729l-14.472 6.117a2.391 2.391 0 0 1 -1.963-.089l-3.3-1.906-.09-.065c-.294-.239-.206-.56.2-.734l1.175-.5a14.377 14.377 0 0 1 -7.176-1.715c-1.909-1.1-2.962-2.35-2.779-3.755.212-1.539 1.754-3.008 4.255-4.052 4.96-2.1 11.473-1.871 15.534.473 1.778 1.025 3.163 2.267 2.817 3.393l-.119.361 1.2-.5a1.406 1.406 0 0 1 1.158.052l3.676 2.123zm-12.313 1.107c1.185-.489 1.874-1.148 1.961-1.854s-.41-1.387-1.46-1.994a9.147 9.147 0 0 0 -7.632-.337c-1.175.5-1.887 1.142-1.972 1.824-.108.694.4 1.382 1.469 2a9.063 9.063 0 0 0 7.633.361" fill="#179bd7" transform="translate(188.955 246.551)"/><path d="m173.39 100.267c-.174 1.248-1.5 2.4-3.948 3.427a17.1 17.1 0 0 1 -15.978-.834l-2.423-1.4a2.39 2.39 0 0 0 -1.953-.093l-6.417 2.711a1.676 1.676 0 0 1 -1.37-.059l-3.938-2.274-.09-.063c-.294-.228-.206-.56.2-.723l22.654-9.574a2.367 2.367 0 0 1 1.944.087l7.674 4.432c2.571 1.489 3.829 2.996 3.645 4.363zm-9.9.3c1.113-.473 1.684-.946 1.753-1.452.106-.846-1.2-1.6-2.58-2.4l-.535-.31a1.39 1.39 0 0 0 -1.159-.052l-5.923 2.5 1.161.671c2.029 1.172 4.141 2.39 7.284 1.044" fill="#179bd7" transform="translate(181.601 241.151)"/><path d="m188.059 106.534c.3.233.2.56-.188.729l-22.664 9.568a2.379 2.379 0 0 1 -1.944-.087l-3.17-1.832-.092-.063c-.293-.228-.2-.56.2-.723l23.066-9.756a1.423 1.423 0 0 1 1.158.054l3.545 2.045z" fill="#179bd7" transform="translate(194.822 248.743)"/><path d="m88.177 63.2a3.257 3.257 0 0 1 1.4-.228 3.35 3.35 0 0 0 -1.4.228z" fill="#253b80" transform="translate(153.144 224.72)"/><path d="m105.588 64.444c-.078-.082-.157-.163-.239-.244.161.157.315.315.462.476-.082-.076-.152-.156-.223-.232z" fill="#253b80" transform="translate(163.132 225.434)"/><path d="m112.008 64.552c.119.07.237.138.353.207l.059.036.285.172.063.041c.092.057.182.114.269.171l.07.044.248.163.111.076.193.131.179.128.114.081c.087.063.174.128.259.193.125.093.22.166.315.24q.434.349.813.713c.082.081.161.161.239.244s.142.152.223.233a6.466 6.466 0 0 1 .66.94c-.231.1-.473.193-.723.291a23.934 23.934 0 0 1 -21.731-1.5l-3.091-1.784a3 3 0 0 0 -1.333-.356 3.256 3.256 0 0 0 -1.4.228l.372-.157 12.793-5.4a2.927 2.927 0 0 1 2.417.106z" fill="#222d65" transform="translate(153.144 222.684)"/><path d="m122.319 60.867c3.625 2.094 5.7 4.176 5.49 6.11-.191 1.762-1.544 3.038-4.576 4.321a6.467 6.467 0 0 0 -.66-.94c-.147-.161-.3-.319-.462-.476q-.38-.365-.813-.713l-.286-.221c-.112-.084-.2-.149-.288-.212l-.114-.081-.179-.128-.193-.131-.111-.076-.248-.163c-.157-.1-.247-.158-.338-.215-.157-.1-.253-.157-.348-.214-.174-.106-.293-.174-.411-.244l-8.25-4.762a2.927 2.927 0 0 0 -2.417-.106l-12.793 5.4-10.589 4.478-1.321.56-6.5-3.755-.131-.089c-.414-.332-.3-.786.277-1.025l31.989-13.515a3.336 3.336 0 0 1 2.749.122z" fill="#253b80" transform="translate(146.37 219.752)"/><path d="m81.717 67.5 10.589-4.48-.371.157z" fill="#253b80" transform="translate(149.386 224.747)"/><path d="m122.074 66.33a2.637 2.637 0 0 1 .34 1.533c-.171 1.656-2.066 3.062-5.159 4.274a20.952 20.952 0 0 1 -19.012-1.318l-.818-.471a2.9 2.9 0 0 0 -2.406-.111l-.432.169-7.532 3.182-.321.128a2.921 2.921 0 0 1 -2.407-.111l-5.481-3.165-.112-.076c-.353-.286-.255-.694.237-.9l3.284-1.381 1.321-.56 10.217-4.323a3.346 3.346 0 0 1 1.4-.228 3 3 0 0 1 1.333.356l3.091 1.784a23.934 23.934 0 0 0 21.731 1.5c.252-.09.495-.183.726-.282z" fill="#179bd7" transform="translate(147.528 224.72)"/><g filter="url(#d)" transform="translate(.003 -.001)"><path d="m318.967 131.136c3.9 2.249 3.918 5.923.046 8.174l-95.672 55.6a15.594 15.594 0 0 1 -14.113 0l-168.967-97.555c-3.9-2.249-3.929-5.928-.055-8.179l95.672-55.6a15.613 15.613 0 0 1 14.123 0z" fill="#dee7f7" transform="translate(369.29 185.46)"/></g><path d="m190.107 166.97.006-2.578c0 1.495.979 2.991 2.943 4.125l-.008 2.578c-1.964-1.134-2.948-2.63-2.941-4.125z" fill="#3b4e71" transform="translate(216.496 113.236)"/><path d="m371.1 190.959-.006 2.578c0 1.473-.968 2.94-2.891 4.059l.006-2.578c1.928-1.118 2.891-2.588 2.891-4.059z" fill="#3b4e71" transform="translate(320.092 128.69)"/><path d="m403.4 193.525-.007 2.579-95.673 55.6.007-2.579z" fill="#3b4e71" transform="translate(284.908 130.182)"/><path d="m360.942 264.553-.007 2.579-168.968-97.554.007-2.579z" fill="#3b4e71" transform="translate(217.578 114.753)"/><path d="m471.76 224.855c3.9 2.251 3.919 5.923.046 8.174l-95.673 55.6a15.59 15.59 0 0 1 -14.112 0l-168.967-97.554c-3.9-2.251-3.929-5.93-.057-8.18l95.674-55.6a15.61 15.61 0 0 1 14.121.006z" fill="url(#e)" transform="translate(216.498 90.678)"/><path d="m312.915 228.677-.008 2.578a15.591 15.591 0 0 1 -14.112 0l.008-2.578a15.59 15.59 0 0 0 14.112 0z" fill="#3b4e71" transform="translate(279.718 150.63)"/><path d="m217.464 166.914-.913.531-2.363-1.365-2.559 1.324a4.7 4.7 0 0 1 .694.122 2.268 2.268 0 0 1 .606.245 1.586 1.586 0 0 1 .557.5.822.822 0 0 1 .1.595 1.546 1.546 0 0 1 -.419.688 4.447 4.447 0 0 1 -1 .745 6.647 6.647 0 0 1 -1.335.59 6.032 6.032 0 0 1 -1.3.25 4.738 4.738 0 0 1 -1.158-.041 2.751 2.751 0 0 1 -.908-.315 1.87 1.87 0 0 1 -.536-.425 1.337 1.337 0 0 1 -.264-.43 1.723 1.723 0 0 1 -.063-.444 1.651 1.651 0 0 1 .1-.43l1.026-.21a2.306 2.306 0 0 0 -.079.361.885.885 0 0 0 .022.362.9.9 0 0 0 .183.35 1.63 1.63 0 0 0 .414.321 1.893 1.893 0 0 0 .645.221 3.382 3.382 0 0 0 .805.024 4.06 4.06 0 0 0 .865-.176 4.214 4.214 0 0 0 .873-.391c.562-.326.892-.647.971-.962s-.074-.588-.468-.816a2.042 2.042 0 0 0 -.675-.252c-.242-.035-.533-.063-.886-.081v-.408l4.106-2.187z" fill="#dee7f7" transform="translate(226.094 113.71)"/><path d="m231.7 174.714a1.336 1.336 0 0 1 .536.506.813.813 0 0 1 .044.595 1.545 1.545 0 0 1 -.419.642 4.159 4.159 0 0 1 -.873.636 6.316 6.316 0 0 1 -1.325.571 15.656 15.656 0 0 1 -1.7.414c-.623.115-1.307.221-2.061.308-.734.087-1.539.18-2.395.269.182.081.364.163.535.25.193.087.364.176.516.263l1.727 1-.913.531-3.687-2.129.633-.367q1.585-.149 2.836-.28c.846-.093 1.58-.193 2.224-.3a14.738 14.738 0 0 0 1.7-.367 5.846 5.846 0 0 0 1.215-.508 1.978 1.978 0 0 0 .881-.827c.109-.286-.022-.536-.406-.759a2.056 2.056 0 0 0 -.977-.226 7.348 7.348 0 0 0 -1.278.076l.218-.573a9.008 9.008 0 0 1 1.661-.087 2.828 2.828 0 0 1 1.308.362z" fill="#dee7f7" transform="translate(234.867 119.024)"/><path d="m225.923 171.536-7.295 4.239 1.374.792-.873.508-3.524-2.036.871-.506 1.485.857 6.01-3.494-1.121-.647.682-.4a7.259 7.259 0 0 0 .977.274 5.419 5.419 0 0 0 .917.122z" fill="#dee7f7" transform="translate(231.329 116.995)"/><path d="m223.832 170.806-.652.38c-.966.163-1.83.338-2.615.536a22.7 22.7 0 0 0 -2.271.688 21.269 21.269 0 0 0 -2.138.9c-.713.345-1.476.74-2.3 1.2l-.7-.4c.8-.444 1.545-.829 2.249-1.155s1.425-.618 2.129-.875 1.436-.473 2.18-.66 1.558-.367 2.433-.525l-3.019-1.743.914-.53z" fill="#dee7f7" transform="translate(229.906 115.696)"/><path d="m216.016 171.311a5.009 5.009 0 0 1 -.982.712 5.781 5.781 0 0 1 -1.216.531 6.338 6.338 0 0 1 -1.2.261 4.618 4.618 0 0 1 -1.1 0 2.367 2.367 0 0 1 -.857-.274 1.163 1.163 0 0 1 -.557-.6 1.022 1.022 0 0 1 .106-.8 3.545 3.545 0 0 1 .811-.951 9.971 9.971 0 0 1 1.563-1.085 17.026 17.026 0 0 1 2.27-1.118 10.082 10.082 0 0 1 1.889-.538 5.109 5.109 0 0 1 1.5-.052 2.767 2.767 0 0 1 1.069.327 1.132 1.132 0 0 1 .587.629 1.174 1.174 0 0 1 0 .723l-1.036.157a.784.784 0 0 0 0-.547.875.875 0 0 0 -.4-.426 2.062 2.062 0 0 0 -.777-.239 3.6 3.6 0 0 0 -1.1.052 8.2 8.2 0 0 0 -1.427.419 14.144 14.144 0 0 0 -1.8.881 7.044 7.044 0 0 1 1.479-.041 2.509 2.509 0 0 1 1.058.286 1.275 1.275 0 0 1 .506.467.775.775 0 0 1 .044.582 1.675 1.675 0 0 1 -.43.644zm-2.442.718a5.07 5.07 0 0 0 .813-.38 2.167 2.167 0 0 0 1-.909c.109-.285-.022-.525-.386-.734a2.244 2.244 0 0 0 -.9-.239 6.571 6.571 0 0 0 -1.539.1 3.917 3.917 0 0 0 -1.382 1.3.623.623 0 0 0 .318.892 1.467 1.467 0 0 0 .565.174 2.586 2.586 0 0 0 .715-.006 4.914 4.914 0 0 0 .794-.191" fill="#dee7f7" transform="translate(228.107 114.962)"/><path d="m236.116 177.685-.913.531-2.363-1.365-2.559 1.324a4.885 4.885 0 0 1 .694.123 2.21 2.21 0 0 1 .606.244 1.6 1.6 0 0 1 .557.5.742.742 0 0 1 .1.595 1.538 1.538 0 0 1 -.419.688 4.447 4.447 0 0 1 -1 .745 6.323 6.323 0 0 1 -2.622.846 5.221 5.221 0 0 1 -1.167-.046 2.79 2.79 0 0 1 -.908-.316 1.782 1.782 0 0 1 -.527-.419 1.3 1.3 0 0 1 -.274-.437 1.32 1.32 0 0 1 -.052-.438 1.562 1.562 0 0 1 .087-.437l1.027-.21a2.139 2.139 0 0 0 -.068.367.628.628 0 0 0 .022.362.74.74 0 0 0 .182.35 1.507 1.507 0 0 0 .4.315 1.889 1.889 0 0 0 .655.228 3.32 3.32 0 0 0 .807.022 4.5 4.5 0 0 0 .864-.174 4.924 4.924 0 0 0 .875-.391c.561-.327.881-.653.96-.968s-.074-.588-.468-.816a2.07 2.07 0 0 0 -.675-.251 8.307 8.307 0 0 0 -.876-.076l-.013-.413 4.1-2.187z" fill="#dee7f7" transform="translate(236.949 119.975)"/><path d="m228.361 172.95a1.6 1.6 0 0 1 .536.471.867.867 0 0 1 .153.555 1.2 1.2 0 0 1 -.288.588 2.718 2.718 0 0 1 -.751.588 3.921 3.921 0 0 1 -1.528.525 5.151 5.151 0 0 1 -1.529-.046l-.051.028a1.051 1.051 0 0 1 .234.449.811.811 0 0 1 -.027.484 1.41 1.41 0 0 1 -.32.525 3.2 3.2 0 0 1 -.661.5 4.91 4.91 0 0 1 -1.129.483 5.084 5.084 0 0 1 -1.136.193 4.315 4.315 0 0 1 -1.068-.082 2.9 2.9 0 0 1 -.9-.332 1.326 1.326 0 0 1 -.735-1.76l1.045-.2a1.49 1.49 0 0 0 -.055.758 1.022 1.022 0 0 0 .577.671 1.871 1.871 0 0 0 .615.228 2.9 2.9 0 0 0 .685.059 3.19 3.19 0 0 0 .734-.122 3.271 3.271 0 0 0 .713-.31 2.069 2.069 0 0 0 .562-.443.731.731 0 0 0 .177-.49.776.776 0 0 0 -.255-.53 2.959 2.959 0 0 0 -.758-.577l.8-.467a3.7 3.7 0 0 0 .909.384 3.063 3.063 0 0 0 .846.128 2.878 2.878 0 0 0 .785-.115 3.2 3.2 0 0 0 .7-.293c.4-.233.612-.471.65-.717s-.1-.467-.425-.653a2.376 2.376 0 0 0 -.928-.267 6.23 6.23 0 0 0 -1.188.011l.3-.595a7.437 7.437 0 0 1 1.479.006 3.038 3.038 0 0 1 1.232.365z" fill="#dee7f7" transform="translate(233.343 117.977)"/><path d="m234.672 182.082a5.009 5.009 0 0 1 -.982.712 6.254 6.254 0 0 1 -1.205.536 6.321 6.321 0 0 1 -1.207.256 4.614 4.614 0 0 1 -1.1 0 2.368 2.368 0 0 1 -.857-.274 1.209 1.209 0 0 1 -.557-.6.973.973 0 0 1 .117-.794 3.233 3.233 0 0 1 .8-.955 10 10 0 0 1 1.563-1.085 15.963 15.963 0 0 1 2.279-1.113 8.95 8.95 0 0 1 1.89-.536 4.843 4.843 0 0 1 1.488-.059 2.768 2.768 0 0 1 1.069.327 1.187 1.187 0 0 1 .6.636 1.168 1.168 0 0 1 -.006.717l-1.027.163a.907.907 0 0 0 0-.547.9.9 0 0 0 -.394-.425 2.1 2.1 0 0 0 -.788-.245 3.6 3.6 0 0 0 -1.1.052 8.208 8.208 0 0 0 -1.427.419 15.792 15.792 0 0 0 -1.8.881 7.042 7.042 0 0 1 1.479-.041 2.508 2.508 0 0 1 1.058.286 1.367 1.367 0 0 1 .517.471.817.817 0 0 1 .033.577 1.674 1.674 0 0 1 -.443.641zm-2.442.718a4.241 4.241 0 0 0 .813-.38 2.167 2.167 0 0 0 1-.909c.109-.285-.024-.525-.386-.734a2.244 2.244 0 0 0 -.9-.239 6.2 6.2 0 0 0 -1.529.1 3.894 3.894 0 0 0 -1.381 1.294.614.614 0 0 0 .307.887 1.466 1.466 0 0 0 .565.174 2.586 2.586 0 0 0 .715-.006 4.915 4.915 0 0 0 .794-.191" fill="#dee7f7" transform="translate(238.96 121.228)"/><path d="m231.5 159.176 1-.583 2.969 1.714-7.3 4.245-.788-.455 6.3-3.662z" fill="#dee7f7" transform="translate(238.176 109.863)"/><path d="m293.113 151.745-6.753.2-2.486 5.329-3.353-1.936 1.994-3.312-2.969.1-2.287 1.329-2.717-1.568 9.381-5.451 2.716 1.568-3.542 2.058 6.389-.414z" fill="#dee7f7" transform="translate(265.611 102.793)"/><path d="m285.871 147.564-9.381 5.451-2.565-1.481 1.845-4.9-5.147 2.991-2.555-1.475 9.381-5.451 2.535 1.463-1.865 4.933 5.187-3.014z" fill="#dee7f7" transform="translate(261.845 100.619)"/><path d="m277.11 141.8-6.078 7.358-2.849-1.643 1.112-1.15-3.091-1.784-1.98.649-2.776-1.6 12.693-3.54zm-8.294 1.941 1.939 1.12 2.4-2.518-4.342 1.4" fill="#dee7f7" transform="translate(257.994 99.099)"/><path d="m252.361 150.585-1.114.647-7.725-4.46-.566-.327 1.114-.647.566.326z" transform="translate(247.238 102.421)"/><path d="m249.665 152.152-1.114.647-7.725-4.46-.566-.327 1.114-.647.566.327z" transform="translate(245.67 103.332)"/><path d="m276.873 155.68c1.936 1.118 2.577 2.709 1.914 4.138l-1.357-.783a2.718 2.718 0 0 0 -1.67-2.708l-17.683-10.21a8.633 8.633 0 0 0 -4.68-.958l-1.015-.587-1.114.648.364.21a6.871 6.871 0 0 0 -1.738.693l-1.575.916-.565-.327-1.113.647.565.327-3.149 1.83-.566-.326-1.113.647.565.327-3.049 1.771a4.916 4.916 0 0 0 -.582.4l-.454-.261-1.123.653.8.463c-.713 1.18-.258 2.548 1.373 3.489l17.682 10.21a9.057 9.057 0 0 0 6.028.783l.965.557 1.125-.652-.615-.356a6.068 6.068 0 0 0 .682-.338l3.049-1.773.566.327 1.113-.647-.566-.327 3.151-1.83.566.326 1.113-.647-.566-.327 1.575-.914a4.026 4.026 0 0 0 1.191-1.009l.84.484.867-.5a4.678 4.678 0 0 1 -1.776 1.677l-10 5.813a11.5 11.5 0 0 1 -10.419.006l-17.682-10.21c-2.879-1.661-2.894-4.367-.025-6.034l10-5.813a11.493 11.493 0 0 1 10.417-.006z" transform="translate(243.556 101.506)"/><path d="m269.592 155.991a2.717 2.717 0 0 1 1.67 2.708l-24.034-13.876a8.633 8.633 0 0 1 4.68.958z" fill="#dee7f7" transform="translate(249.723 101.843)"/><path d="m273.535 159.768-.246.143-.867.5-.839-.484-25.336-14.627-.364-.21 1.114-.647 1.015.586 24.034 13.876 1.357.783z" transform="translate(248.94 101.634)"/><path d="m273.214 161.539-9.452-5.457-1.113.647 9.452 5.458-3.151 1.83-9.45-5.457-1.115.647 9.452 5.457-3.049 1.773a6.073 6.073 0 0 1 -.682.338l-25.783-14.887a4.917 4.917 0 0 1 .582-.4l3.051-1.771 7.725 4.46 1.113-.648-7.725-4.46 3.149-1.83 7.727 4.46 1.113-.647-7.727-4.46 1.575-.916a6.871 6.871 0 0 1 1.738-.693l25.335 14.627a4.025 4.025 0 0 1 -1.191 1.009z" fill="#dee7f7" transform="translate(244.542 101.949)"/><path d="m264.833 157.786-1.114.647-.566-.327-9.452-5.457 1.114-.647 9.452 5.457z" transform="translate(253.489 106.029)"/><path d="m262.138 159.353-1.114.647-.565-.327-9.452-5.457 1.114-.647 9.452 5.457z" transform="translate(251.921 106.94)"/><path d="m239.326 153.381c-1.631-.941-2.086-2.309-1.373-3.489l25.082 14.482a9.057 9.057 0 0 1 -6.028-.783z" fill="#dee7f7" transform="translate(244.137 104.802)"/><path d="m265.3 164.689-1.124.653-.965-.557-25.083-14.485-.8-.464 1.124-.653.453.262 25.784 14.886z" transform="translate(243.962 104.391)"/><path d="m265.251 177.729a4.094 4.094 0 0 1 -1.722 1.539l-4.475 2.6-.645-.373.922-.618-.021-.011a12.035 12.035 0 0 1 -1.711-.024 3.223 3.223 0 0 1 -1.321-.367 1.349 1.349 0 0 1 -.475-.438.813.813 0 0 1 -.095-.53 1.307 1.307 0 0 1 .3-.571 3.181 3.181 0 0 1 .762-.584 4.575 4.575 0 0 1 1.265-.512 4.529 4.529 0 0 1 1.378-.111 7.323 7.323 0 0 1 1.593.291 15.473 15.473 0 0 1 1.885.705 4.462 4.462 0 0 0 .633-.46 1.179 1.179 0 0 0 .359-.456.51.51 0 0 0 .017-.454.863.863 0 0 0 -.414-.414 2.961 2.961 0 0 0 -1.17-.35 10.745 10.745 0 0 0 -1.338-.089l.53-.669c.24 0 .493 0 .785.022.272.017.554.052.826.093a6.019 6.019 0 0 1 .816.182 2.96 2.96 0 0 1 .707.291c.645.379.848.805.609 1.308zm-5.088 2.583 1.917-1.115a11.913 11.913 0 0 0 -1.514-.582 5.8 5.8 0 0 0 -1.21-.234 3.1 3.1 0 0 0 -.944.059 2.648 2.648 0 0 0 -.785.3 1.478 1.478 0 0 0 -.451.367.606.606 0 0 0 -.128.332.428.428 0 0 0 .122.315.987.987 0 0 0 .313.263 2.61 2.61 0 0 0 1.079.3 9.156 9.156 0 0 0 1.6 0" fill="#dee7f7" transform="translate(254.649 119.892)"/><path d="m269.556 179.315a1.507 1.507 0 0 1 .4.315.8.8 0 0 1 .2.386l-1.226.524a1.583 1.583 0 0 0 -.234-.354 1.427 1.427 0 0 0 -.394-.3 3.043 3.043 0 0 0 -1.48-.31 10.2 10.2 0 0 0 -2.535.408l-4.283 2.49-.788-.454 7.3-4.245.656.38-1.642 1.045.03.017a9.422 9.422 0 0 1 2.293-.293 3.435 3.435 0 0 1 1.703.391z" fill="#dee7f7" transform="translate(256.701 121.022)"/><path d="m276.128 179.619.788.456-10.706 6.225-.656-.38.894-.6-.03-.017a7.622 7.622 0 0 1 -1.49.07 2.536 2.536 0 0 1 -1.169-.28 1.182 1.182 0 0 1 -.587-.629 1.1 1.1 0 0 1 .106-.8 3.158 3.158 0 0 1 .789-.94 8.909 8.909 0 0 1 1.465-1.025 10.088 10.088 0 0 1 3.475-1.261 6.07 6.07 0 0 1 1.439-.052 2.688 2.688 0 0 1 1.068.3.95.95 0 0 1 .508.595 2.039 2.039 0 0 1 -.027.775l1.314-.8zm-8.75 5.085 3.633-2.112a1.141 1.141 0 0 0 .035-.747.887.887 0 0 0 -.4-.467 1.755 1.755 0 0 0 -.786-.209 3.778 3.778 0 0 0 -1.036.063 7.171 7.171 0 0 0 -1.186.327 7.734 7.734 0 0 0 -1.254.6 4.747 4.747 0 0 0 -1.7 1.4.66.66 0 0 0 .277 1.02 3.993 3.993 0 0 0 2.426.123" fill="#dee7f7" transform="translate(258.976 122.094)"/><path d="m275.191 185.134a7.318 7.318 0 0 1 -1.444 1.061 10.351 10.351 0 0 1 -1.808.827 8.6 8.6 0 0 1 -1.708.408 5.651 5.651 0 0 1 -1.479.006 3.1 3.1 0 0 1 -1.129-.361 1.435 1.435 0 0 1 -.639-.66 1.2 1.2 0 0 1 .006-.857 3.247 3.247 0 0 1 .7-.99 7.293 7.293 0 0 1 1.433-1.044 10.347 10.347 0 0 1 1.817-.846 10.239 10.239 0 0 1 1.718-.414 6.025 6.025 0 0 1 1.48 0 3.165 3.165 0 0 1 1.15.361 1.406 1.406 0 0 1 .617.66 1.147 1.147 0 0 1 0 .857 2.908 2.908 0 0 1 -.714.992zm-3.507 1.183a8.453 8.453 0 0 0 1.245-.595 6.538 6.538 0 0 0 1.042-.734 2.567 2.567 0 0 0 .59-.694.867.867 0 0 0 .108-.612.8.8 0 0 0 -.4-.467 2.013 2.013 0 0 0 -.818-.239 4.113 4.113 0 0 0 -1.057.065 6.588 6.588 0 0 0 -1.2.343 8.779 8.779 0 0 0 -1.254.612 6.523 6.523 0 0 0 -1.033.718 2.5 2.5 0 0 0 -.58.688.848.848 0 0 0 -.1.606.768.768 0 0 0 .416.473 1.848 1.848 0 0 0 .807.233 4.076 4.076 0 0 0 1.046-.059 6.315 6.315 0 0 0 1.186-.338" fill="#dee7f7" transform="translate(261.17 123.604)"/><path d="m261.062 174.4a1.3 1.3 0 0 1 .679.762 1.41 1.41 0 0 1 -.036.84l-1.2.239a1.313 1.313 0 0 0 .016-.71.881.881 0 0 0 -.456-.519 2.613 2.613 0 0 0 -.938-.31 4.06 4.06 0 0 0 -1.158.006 6.3 6.3 0 0 0 -1.267.3 7.038 7.038 0 0 0 -1.284.595 4.805 4.805 0 0 0 -1 .734 1.906 1.906 0 0 0 -.519.723.874.874 0 0 0 -.006.66 1.169 1.169 0 0 0 .536.542 2.632 2.632 0 0 0 1.058.308 6.965 6.965 0 0 0 1.31 0l-.44.664a7.592 7.592 0 0 1 -1.711-.011 3.439 3.439 0 0 1 -1.3-.4 1.829 1.829 0 0 1 -.759-.728 1.22 1.22 0 0 1 -.076-.9 2.6 2.6 0 0 1 .669-1.008 6.782 6.782 0 0 1 1.424-1.05 9.7 9.7 0 0 1 1.836-.834 9.14 9.14 0 0 1 1.779-.38 6.2 6.2 0 0 1 1.582.052 3.8 3.8 0 0 1 1.261.425z" fill="#dee7f7" transform="translate(252.765 118.762)"/><path d="m253.423 171.835 1-.583 2.969 1.714-7.3 4.245-.788-.455 6.3-3.662z" fill="#dee7f7" transform="translate(250.929 117.226)"/><path d="m251.38 173.063-2.687 3.423-.909-.524 2.638-3.3-1.12-.647-4.165 2.42-.808-.467 9.863-5.732 1.969 1.137a2.536 2.536 0 0 1 .737.6.908.908 0 0 1 .226.675 1.422 1.422 0 0 1 -.4.759 4.787 4.787 0 0 1 -1.132.845 6.491 6.491 0 0 1 -2.23.851 4.774 4.774 0 0 1 -1.982-.04zm0-1.038a2.806 2.806 0 0 0 1.6.38 4.188 4.188 0 0 0 1.819-.612c.652-.38.971-.718.981-1.015s-.256-.6-.74-.879l-1.05-.607-3.662 2.129 1.05.606" fill="#dee7f7" transform="translate(248.036 115.472)"/><path d="m241.189 163.071-.662.385-8.86 1.417 3.312 1.912-1 .583-4.433-2.559.662-.385 8.84-1.428-2.848-1.644 1-.583z" fill="#dee7f7" transform="translate(239.435 111.128)"/><path d="m244.841 165.18-.662.385-8.85 1.423 3.312 1.912-1 .583-4.443-2.565.662-.385 8.84-1.428-2.848-1.644 1-.583z" fill="#dee7f7" transform="translate(241.559 112.354)"/><path d="m249.891 167.571-9.966 3.405c-.452.158-.884.291-1.318.4a7.5 7.5 0 0 1 -1.226.234 5.079 5.079 0 0 1 -1.077-.006 2.472 2.472 0 0 1 -.908-.3 1.141 1.141 0 0 1 -.465-.444l1.145-.467.131.158.191.146a2.011 2.011 0 0 0 1.24.2 7.207 7.207 0 0 0 1.588-.373l.693-.226 5.133-5.522.8.46-2.893 3.015c-.229.239-.479.489-.75.764s-.531.541-.791.8l.04.022c.432-.157.875-.308 1.327-.478s.884-.315 1.286-.467l5.072-1.754z" fill="#dee7f7" transform="translate(242.57 113.461)"/><path d="m233.265 156.154-8.8 5.113 3.131 1.807-1.063.618-3.918-2.262 9.862-5.731z" fill="#dee7f7" transform="translate(235.406 108.18)"/><path d="m233.229 159.4c-.191-.111-.263-.245-.214-.414a1.114 1.114 0 0 1 .52-.5 2.364 2.364 0 0 1 .875-.308 1.189 1.189 0 0 1 .726.115.334.334 0 0 1 .183.408 1.045 1.045 0 0 1 -.511.519 2.21 2.21 0 0 1 -.884.293 1.166 1.166 0 0 1 -.695-.113z" fill="#dee7f7" transform="translate(241.447 109.618)"/><path d="m255.145 172.056a.338.338 0 0 1 -.2-.408 1.02 1.02 0 0 1 .511-.506 2.251 2.251 0 0 1 .884-.3 1.2 1.2 0 0 1 .715.111.339.339 0 0 1 .195.414 1.083 1.083 0 0 1 -.522.512 2.149 2.149 0 0 1 -.873.3 1.139 1.139 0 0 1 -.71-.123z" fill="#dee7f7" transform="translate(254.2 116.98)"/><path d="m267.936 143.265a1.928 1.928 0 0 1 -1.03 1.125 4.854 4.854 0 0 1 -1.639.577 6.122 6.122 0 0 1 -1.79.035 5.181 5.181 0 0 1 -1.332-.419c-.705-.3-1.15-.512-1.352-.629l-4.7-2.711 9.381-5.452 5.09 2.939c.848.49 1.273 1 1.288 1.522a1.616 1.616 0 0 1 -.99 1.359 4.216 4.216 0 0 1 -1.909.547 4.983 4.983 0 0 1 -1.582-.18 1.382 1.382 0 0 1 .565 1.287zm-4.441-.391a1.915 1.915 0 0 0 1.006-.245c.28-.163.4-.35.38-.56s-.264-.443-.75-.723l-1.373-.792-1.9 1.1 1.384.8a2.76 2.76 0 0 0 1.25.419m2.825-4.391-1.776 1.033 1.181.682a2.4 2.4 0 0 0 1.109.373 1.733 1.733 0 0 0 .935-.251c.27-.157.4-.326.38-.512 0-.187-.223-.4-.628-.63l-1.2-.694" fill="#dee7f7" transform="translate(254.881 96.599)"/><path d="m247.59 189.542a4.912 4.912 0 0 1 -.982.712 5.6 5.6 0 0 1 -1.205.536 5.8 5.8 0 0 1 -1.205.256 4.467 4.467 0 0 1 -1.088 0 2.3 2.3 0 0 1 -.867-.28 1.141 1.141 0 0 1 -.547-.595 1.016 1.016 0 0 1 .106-.8 3.234 3.234 0 0 1 .8-.955 9.99 9.99 0 0 1 1.564-1.085 15.8 15.8 0 0 1 2.279-1.113 10.066 10.066 0 0 1 1.889-.536 4.892 4.892 0 0 1 1.5-.052 2.794 2.794 0 0 1 1.069.326 1.137 1.137 0 0 1 .587.63 1.186 1.186 0 0 1 0 .723l-1.036.158a.789.789 0 0 0 0-.549.882.882 0 0 0 -.4-.425 2.121 2.121 0 0 0 -.777-.239 3.449 3.449 0 0 0 -1.1.052 8.223 8.223 0 0 0 -1.427.421 12.963 12.963 0 0 0 -1.8.879 7.073 7.073 0 0 1 1.469-.046 2.606 2.606 0 0 1 1.068.291 1.319 1.319 0 0 1 .506.467.717.717 0 0 1 .033.577 1.413 1.413 0 0 1 -.436.647zm-2.442.718a4.4 4.4 0 0 0 .824-.373 2.175 2.175 0 0 0 1-.909c.109-.286-.033-.531-.386-.735a2.253 2.253 0 0 0 -.9-.239 6.229 6.229 0 0 0 -1.539.1 3.9 3.9 0 0 0 -1.382 1.294.613.613 0 0 0 .307.886 1.4 1.4 0 0 0 .565.176 2.264 2.264 0 0 0 .715-.006 3.735 3.735 0 0 0 .794-.191" fill="#dee7f7" transform="translate(246.48 125.569)"/><path d="m253.951 187.558a1.317 1.317 0 0 1 .536.508.827.827 0 0 1 .054.6 1.7 1.7 0 0 1 -.43.636 3.973 3.973 0 0 1 -.862.642 6.82 6.82 0 0 1 -1.325.571 15.659 15.659 0 0 1 -1.7.414c-.633.111-1.318.215-2.061.308s-1.539.18-2.395.269c.172.076.354.157.535.25s.354.169.516.263l1.727 1-.914.531-3.685-2.129.633-.367q1.585-.149 2.836-.28c.835-.1 1.58-.193 2.224-.3a14.107 14.107 0 0 0 1.688-.373 5.332 5.332 0 0 0 1.226-.5 1.873 1.873 0 0 0 .871-.834c.119-.28-.013-.53-.406-.758a2.085 2.085 0 0 0 -.979-.228 8 8 0 0 0 -1.267.082l.218-.573a8.448 8.448 0 0 1 1.661-.087 2.8 2.8 0 0 1 1.299.355z" fill="#dee7f7" transform="translate(247.814 126.498)"/><path d="m252.487 192.873.808.467-.843.49-.808-.467-2.257 1.311-.636-.367 2.257-1.307-2.7-1.556.7-.41 7.814-1.522.726.421zm2.624-2.251c.272-.146.522-.28.753-.4l-.04-.024c-.282.059-.563.128-.856.193s-.593.122-.864.187l-4.214.8 1.96 1.131 2.528-1.469c.221-.128.471-.263.732-.414" fill="#dee7f7" transform="translate(250.352 127.846)"/><path d="m260.169 191.148a1.4 1.4 0 0 1 .547.514.86.86 0 0 1 .043.595 1.54 1.54 0 0 1 -.429.636 4.106 4.106 0 0 1 -.862.641 6.818 6.818 0 0 1 -1.325.571 15.386 15.386 0 0 1 -1.7.414c-.623.117-1.317.215-2.061.308s-1.539.182-2.395.269c.171.076.353.157.535.25s.353.169.516.263l1.726 1-.913.53-3.685-2.127.631-.369q1.585-.147 2.838-.28c.835-.1 1.578-.191 2.222-.3a14.483 14.483 0 0 0 1.689-.372 5.4 5.4 0 0 0 1.226-.5 1.877 1.877 0 0 0 .87-.835c.12-.28-.013-.53-.406-.758a2.111 2.111 0 0 0 -.977-.228 8.194 8.194 0 0 0 -1.267.082l.217-.571a8.462 8.462 0 0 1 1.661-.089 2.842 2.842 0 0 1 1.299.356z" fill="#dee7f7" transform="translate(251.431 128.586)"/><path d="m275.726 200.13a1.365 1.365 0 0 1 .538.508.812.812 0 0 1 .043.595 1.536 1.536 0 0 1 -.419.641 4.661 4.661 0 0 1 -.872.636 6.231 6.231 0 0 1 -1.325.571 15.382 15.382 0 0 1 -1.7.414c-.623.117-1.308.221-2.063.308-.734.089-1.539.182-2.393.269.171.076.362.163.535.25.191.089.362.176.514.263l1.727 1-.913.53-3.687-2.127.633-.369q1.585-.147 2.838-.28c.845-.093 1.578-.191 2.222-.3a12.656 12.656 0 0 0 1.689-.373 5.252 5.252 0 0 0 1.224-.5 1.969 1.969 0 0 0 .881-.827c.109-.286-.022-.536-.416-.764a2.055 2.055 0 0 0 -.968-.221 7.5 7.5 0 0 0 -1.278.076l.218-.571a8.337 8.337 0 0 1 1.661-.089 2.847 2.847 0 0 1 1.311.36z" fill="#dee7f7" transform="translate(260.474 133.808)"/><path d="m263.147 198.524a5.069 5.069 0 0 1 -.992.705 5.637 5.637 0 0 1 -1.205.536 5.842 5.842 0 0 1 -1.207.256 4.454 4.454 0 0 1 -1.087 0 2.293 2.293 0 0 1 -.867-.28 1.135 1.135 0 0 1 -.547-.595 1.016 1.016 0 0 1 .106-.8 3.477 3.477 0 0 1 .8-.955 9.918 9.918 0 0 1 1.564-1.085 15.7 15.7 0 0 1 2.278-1.114 10.075 10.075 0 0 1 1.89-.536 4.892 4.892 0 0 1 1.5-.052 2.8 2.8 0 0 1 1.069.326 1.137 1.137 0 0 1 .587.63 1.174 1.174 0 0 1 0 .723l-1.036.158a.8.8 0 0 0 0-.549.891.891 0 0 0 -.4-.425 2.11 2.11 0 0 0 -.777-.239 3.457 3.457 0 0 0 -1.1.052 8.306 8.306 0 0 0 -1.427.421 12.876 12.876 0 0 0 -1.8.879 7.567 7.567 0 0 1 1.469-.046 2.607 2.607 0 0 1 1.069.291 1.33 1.33 0 0 1 .506.467.716.716 0 0 1 .033.577 1.508 1.508 0 0 1 -.426.655zm-2.442.716a5.129 5.129 0 0 0 .813-.378 2.181 2.181 0 0 0 1-.909c.109-.286-.033-.531-.388-.735a2.3 2.3 0 0 0 -.9-.239 6.576 6.576 0 0 0 -1.539.1 3.874 3.874 0 0 0 -1.382 1.294.618.618 0 0 0 .307.886 1.469 1.469 0 0 0 .574.18 2.359 2.359 0 0 0 .705-.011 4.337 4.337 0 0 0 .8-.187" fill="#dee7f7" transform="translate(255.523 130.79)"/><path d="m270.962 198.018-.652.378c-.965.163-1.83.339-2.624.531a22.5 22.5 0 0 0 -2.26.693 20.966 20.966 0 0 0 -2.14.9c-.712.343-1.474.74-2.3 1.194l-.7-.4c.8-.443 1.545-.829 2.248-1.155s1.427-.618 2.129-.875 1.438-.471 2.181-.658 1.558-.369 2.433-.525l-3.019-1.743.913-.531z" fill="#dee7f7" transform="translate(257.321 131.524)"/><path d="m273.054 198.747-7.293 4.239 1.373.794-.873.506-3.524-2.034.873-.508 1.474.851 6.01-3.492-1.112-.641.683-.4a7.255 7.255 0 0 0 .978.274 5.222 5.222 0 0 0 .917.123z" fill="#dee7f7" transform="translate(258.743 132.823)"/><path d="m263.726 193.362-7.293 4.239 1.373.792-.873.508-3.524-2.036.873-.506 1.474.851 6.01-3.492-1.112-.642.683-.4a7.249 7.249 0 0 0 .977.274 4.8 4.8 0 0 0 .906.115z" fill="#dee7f7" transform="translate(253.318 129.691)"/><path d="m295.673 211.8-7.295 4.239 1.363.786-.873.508-3.524-2.034.873-.508 1.485.857 6.009-3.492-1.11-.642.682-.4a8.244 8.244 0 0 0 .977.275 5.281 5.281 0 0 0 .908.115z" fill="#dee7f7" transform="translate(271.894 140.417)"/><path d="m302.7 219.726a.25.25 0 0 1 .123.337.969.969 0 0 1 -.471.449 2.006 2.006 0 0 1 -.783.28.9.9 0 0 1 -.574-.076.257.257 0 0 1 -.133-.332 1 1 0 0 1 .481-.454 1.982 1.982 0 0 1 .773-.275.98.98 0 0 1 .584.071z" fill="#dee7f7" transform="translate(280.912 145.375)"/><path d="m304.549 216.771a1.349 1.349 0 0 1 .536.508.763.763 0 0 1 .044.595 1.551 1.551 0 0 1 -.419.641 4.052 4.052 0 0 1 -.862.642 6.337 6.337 0 0 1 -1.337.565 13.8 13.8 0 0 1 -1.7.414q-.935.176-2.051.315c-.734.087-1.548.176-2.4.263.182.082.364.163.535.25.193.089.364.176.525.269l1.718.992-.914.53-3.676-2.123.633-.367c1.057-.1 1.991-.2 2.826-.286s1.58-.191 2.224-.3a14.413 14.413 0 0 0 1.7-.367 5.289 5.289 0 0 0 1.224-.5 1.944 1.944 0 0 0 .872-.834c.12-.28-.022-.536-.406-.758a2.078 2.078 0 0 0 -.977-.228 6.786 6.786 0 0 0 -1.268.082l.218-.573a8.45 8.45 0 0 1 1.661-.087 2.761 2.761 0 0 1 1.294.357z" fill="#dee7f7" transform="translate(277.246 143.491)"/><path d="m307.692 220.023a7.842 7.842 0 0 1 -2.626 2.11 13.225 13.225 0 0 1 -3.665 1.545 3.484 3.484 0 0 1 -2.478-.152c-.585-.338-.668-.816-.269-1.435a8.1 8.1 0 0 1 2.656-2.127 12.834 12.834 0 0 1 3.635-1.528 3.455 3.455 0 0 1 2.447.169.888.888 0 0 1 .3 1.418zm-6.192 3.047a11.5 11.5 0 0 0 2.932-1.3 13.7 13.7 0 0 0 1.433-.927 3.945 3.945 0 0 0 .781-.759.84.84 0 0 0 .218-.582.623.623 0 0 0 -.315-.4 1.575 1.575 0 0 0 -.685-.174 3.383 3.383 0 0 0 -1.015.122 8.33 8.33 0 0 0 -1.3.46 16.089 16.089 0 0 0 -1.605.829 7.577 7.577 0 0 0 -2.244 1.7c-.321.456-.3.794.065 1a2.47 2.47 0 0 0 1.732.035" fill="#dee7f7" transform="translate(279.494 144.594)"/><path d="m304.695 215.353-13.813 4.915-.606-.35 13.813-4.918z" fill="#dee7f7" transform="translate(274.763 142.676)"/><path d="m298.331 213.181a1.357 1.357 0 0 1 .536.506.763.763 0 0 1 .043.595 1.53 1.53 0 0 1 -.419.642 4.008 4.008 0 0 1 -.862.641 6.4 6.4 0 0 1 -1.335.566 13.932 13.932 0 0 1 -1.7.414q-.935.173-2.051.315c-.735.087-1.55.174-2.4.263.18.081.362.163.535.25.191.087.362.176.525.269l1.716.99-.913.531-3.676-2.123.631-.367c1.057-.1 1.993-.2 2.828-.286s1.578-.193 2.222-.3a14.739 14.739 0 0 0 1.7-.367 5.407 5.407 0 0 0 1.226-.5 1.962 1.962 0 0 0 .871-.834c.119-.28-.024-.536-.408-.758a2.028 2.028 0 0 0 -.978-.228 6.759 6.759 0 0 0 -1.267.081l.207-.577a8.921 8.921 0 0 1 1.67-.081 2.755 2.755 0 0 1 1.299.358z" fill="#dee7f7" transform="translate(273.629 141.402)"/><path d="m399.683 198.714c3.9 2.251 3.919 5.936.046 8.187l-31.5 18.308c-14.207 1.038-29.079-1.6-40.035-7.924-18.8-10.855-18.9-28.451-.221-39.308a62.826 62.826 0 0 1 22.958-7.412z" fill="url(#b)" transform="translate(288.576 116.827)"/><path d="m399.683 198.714c3.9 2.251 3.919 5.936.046 8.187l-31.5 18.308c-14.207 1.038-29.079-1.6-40.035-7.924-18.8-10.855-18.9-28.451-.221-39.308a62.826 62.826 0 0 1 22.958-7.412z" fill="url(#b)" transform="translate(288.576 116.827)"/><path d="m1173.391 398.785-52.391-30.248 52.392-30.249z" fill="#394e71" opacity=".322" transform="translate(-1120.999 -121.279)"/><path d="m1242.363 257.894c.327.189.637.389.927.593.083.062.155.126.238.189.192.145.387.291.561.446.094.081.17.166.257.249.141.138.291.276.421.418.079.091.147.187.221.28.111.138.234.274.332.416.068.1.123.2.181.3.083.138.178.274.246.414.055.108.095.221.138.331a3.648 3.648 0 0 1 .17.4c.04.117.059.236.087.355a3.273 3.273 0 0 1 .095.391 3.537 3.537 0 0 1 .032.374c.011.132.032.266.032.395v.006c-.017 2.014-1.347 4.026-4.007 5.56l-19.074 11.014-.062-22.135c5.312-3.064 13.932-3.064 19.205.004z" fill="#3b4e71" transform="translate(-1030.166 -194.805)"/><path d="m1148.421 329.561 12.757 7.415 128.431-74.148c5.312-3.068 13.932-3.068 19.2 0s5.246 8.053-.068 11.121l-128.428 74.151 12.765 7.419 128.434-74.154c12.395-7.154 12.455-18.8.142-25.951s-32.4-7.158-44.8 0z" fill="#a9b6c9" transform="translate(-1096.617 -199.738)"/><path d="m1148.42 292.136.415 147.579 12.759 7.416-.415-147.581z" fill="#43597c" transform="translate(-1096.617 -162.313)"/><path d="m1300.494 272.771c6.238-3.6 9.349-8.337 9.338-13.063q.207 73.792.419 147.579c.011 4.73-3.1 9.466-9.338 13.069l-128.434 74.144-.419-147.579z" fill="#8999ad" transform="translate(-1075.599 -191.146)"/><path d="m1305.565 387.8c0 7.371-10.12 15.772-13.445 17.7l-114.9 66.337-.359-126.707 119.718-69.13s8.951-5.225 8.987-8.393" fill="none" transform="translate(-1071.332 -184.124)"/><path d="m1165.3 301.949.418 147.579 12.766 7.418-.418-147.579z" fill="#43597c" transform="translate(-1081.608 -153.588)"/><path d="m1155.174 296.061.415 147.581 19.138 11.121-.418-147.579z" fill="#c3cee0" transform="translate(-1090.612 -158.823)"/><path d="m1155.174 330.96 19.134 11.123 128.434-74.151-19.142-11.121z" fill="#dee7f7" transform="translate(-1090.612 -193.722)"/><path d="m1178.17 338.82.166 59.031 33.942-19.6-.17-59.033z" fill="#fce36f" transform="translate(-1070.166 -138.231)"/><path d="m1142.614 315.52q.091 29.519.17 59.031c.021 8.034 13.711 15.99 19.2 19.177 7.492 4.356 30.308 17.612 47.969 7.415l-.166-59.031c-17.665 10.2-40.477-3.059-47.969-7.417-5.493-3.187-19.18-11.142-19.204-19.175z" fill="#fed070" transform="translate(-1101.78 -141.522)"/><path d="m1149.167 312.173 4.507-2.6.019 7.568c-3.816 3.16-3.969 8.376 14.541 19.133 21.2 12.325 29.933 10.432 35.162 7.411l33.942-19.6 6.384 3.708-33.938 19.6c-17.665 10.2-40.477-3.058-47.969-7.417s-30.308-17.606-12.648-27.803z" fill="#fce36f" transform="translate(-1101.78 -146.808)"/><path d="m1147.691 315.764c.015-.042.036-.081.051-.121a4.5 4.5 0 0 1 .308-.58c.007-.015.021-.032.028-.045a5.262 5.262 0 0 1 .427-.567c.03-.04.066-.079.1-.115.162-.178.327-.351.51-.518.023-.023.051-.047.074-.066.047-.04.1-.077.144-.115v8.023a7.226 7.226 0 0 1 -1.933-4.44 3.754 3.754 0 0 1 .068-.676l.023-.13a3.573 3.573 0 0 1 .2-.65z" fill="none" transform="translate(-1097.527 -143.196)"/><path d="m1204.447 334.455-6.38-3.708c-2.923-1.695-6.963-1.456-11.427 1.122l6.379 3.706c4.465-2.575 8.509-2.819 11.428-1.12z" fill="#fff" transform="translate(-1062.635 -128.946)"/><path d="m1182.851 368.836 6.384 3.71c-2.885-1.676-4.674-5.237-4.685-10.3-.032-10.188 7.137-22.594 16-27.712l-6.379-3.706c-8.868 5.116-16.033 17.522-16 27.712.01 5.06 1.799 8.623 4.68 10.296z" fill="#dee7f7" transform="translate(-1070.166 -127.909)"/><path d="m1197.548 333.83c-8.864 5.118-16.033 17.524-16 27.712s7.239 14.3 16.109 9.179 16.028-17.529 16-27.719-7.246-14.292-16.109-9.172z" fill="#fff" transform="translate(-1067.163 -127.202)"/><path d="m1167.034 262.333 67.406-38.918.265 92.947-67.41 38.918z" fill="#fce36f" transform="translate(-1080.067 -223.415)"/><path d="m1207.741 234.712c-.025.431-.059.871-.055 1.3.027 10.692 7.6 15.005 16.906 9.635l.162 64.253-53.917 31.131-.221-84.89.059 20.635c9.306-5.373 16.826-18.4 16.794-29.094 0-.433-.034-.831-.062-1.234z" fill="#fce36f" transform="translate(-1076.882 -213.371)"/><path d="m1187.406 240.926c.028.4.062.8.062 1.234.032 10.692-7.489 23.722-16.794 29.094l-.059-20.635z" fill="#fed070" transform="translate(-1076.882 -207.846)"/><path d="m1207.084 229.579.061 20.635c-9.306 5.371-16.879 1.058-16.906-9.635 0-.433.03-.873.055-1.3z" fill="#fed070" transform="translate(-1059.435 -217.934)"/><g transform="translate(121.596 8.893)"><g clip-path="url(#f)"><path d="m1190.113 306.744q-1.6-.927-3.191-1.853a3.377 3.377 0 0 1 -1.407-3.094l3.193 1.853a3.376 3.376 0 0 0 1.405 3.094z" fill="#3b4e71" transform="translate(-1185.232 -162.617)"/><path d="m1246.573 228.447a3.4 3.4 0 0 0 -3.427.338l-52.982 30.589a10.6 10.6 0 0 0 -4.8 8.312l.283 99.615 3.193 1.853-.285-99.617a10.58 10.58 0 0 1 4.8-8.31l52.981-30.591a3.4 3.4 0 0 1 3.425-.336z" fill="#3b4e71" transform="translate(-1185.365 -228.122)"/><path d="m1244.835 229.764c2.662-1.536 4.823-.3 4.83 2.754l.281 99.617a10.578 10.578 0 0 1 -4.8 8.32l-52.984 30.589c-2.658 1.532-4.819.3-4.827-2.762l-.285-99.617a10.58 10.58 0 0 1 4.8-8.31z" fill="#c3cee0" transform="translate(-1183.863 -227.25)"/><g fill="#3b4e71"><path d="m1203.7 352.98 16.965-9.794v-110.868l-16.965 9.794z" transform="translate(-1169.063 -224.392)"/><path d="m1198.807 258.627v-11.38l-6.845 3.954v11.378z" transform="translate(-1179.5 -211.118)"/><path d="m1191.962 262.522v23.356l6.845-3.954v-23.354z" transform="translate(-1179.5 -201.05)"/></g></g><path d="m1251.448 301.274-.281-67.884a3.378 3.378 0 0 0 -1.409-3.094l-.011-.008c-1.06-.612-2.114-1.228-3.174-1.842a3.4 3.4 0 0 0 -3.427.338l-52.982 30.589a10.6 10.6 0 0 0 -4.8 8.312l.272 67.1 3.9 2.375zm-2.639-71.274a1.322 1.322 0 0 0 -.166-.019 1.322 1.322 0 0 1 .166.019zm.731.195c-.044-.017-.083-.043-.127-.059.044.015.087.041.128.058zm-.355-.123c-.047-.013-.1-.032-.144-.043.048.01.097.029.144.042zm-.782-.087c-.06 0-.119 0-.183 0 .064-.003.123.001.18-.001zm-.451.045c-.059.009-.117.015-.178.028.061-.013.119-.019.178-.028zm-.465.11c-.06.017-.115.028-.174.049.059-.021.114-.033.174-.05zm-.531.193-.126.047z" fill="none" transform="translate(-1185.365 -228.122)"/></g></svg>