<?xml version="1.0" encoding="UTF-8"?>
<svg width="1080px" height="860px" viewBox="0 0 1080 860" version="1.1" xmlns="http://www.w3.org/2000/svg" xmlns:xlink="http://www.w3.org/1999/xlink">
    <title>A208F004-5D3A-460B-866D-9A696CEA7CCE@1x</title>
    <g id="Hero" stroke="none" stroke-width="1" fill="none" fill-rule="evenodd">
        <g id="Lady-with-AU-dollar-01" transform="translate(0.000000, 357.000000)">
            <path d="M465.843377,350.338919 C450.801162,337.282394 429.383332,334.351557 411.345319,342.881352 C412.463278,325.145832 405.421802,307.863624 392.198893,295.889426 C378.975984,283.915228 360.998196,278.540877 343.315622,281.276069 C332.433151,241.229503 300.019398,210.519347 259.223661,201.603798 C218.427923,192.68825 176.024843,207.047846 149.216088,238.857326 C122.407333,270.666807 115.644833,314.643809 131.671933,352.948172 C123.466393,353.122582 115.455124,355.460436 108.459254,359.722112 C91.7582652,340.200174 64.5691988,333.09129 40.3518704,341.91468 C16.1345419,350.738069 0.0279169772,373.621391 0.00550233456,399.236368 C-0.0165505286,400.49235 0.0276961234,401.748617 0.138060273,403 L480.62479,403 C486.698994,384.089683 480.892482,363.403082 465.843377,350.338919 L465.843377,350.338919 Z" id="Path" fill="#FFFFFF" fill-rule="nonzero"></path>
            <path d="M1054.03178,382.406079 C1038.43778,376.685227 1020.92422,381.285617 1010.17131,393.927162 C1005.66105,391.187058 1000.50313,389.690664 995.224097,389.590744 C1005.52066,364.801963 1001.15383,336.354626 983.893779,315.780462 C966.633729,295.206297 939.34416,285.918858 913.087473,291.683004 C886.830785,297.44715 865.963347,317.306525 858.944214,343.210713 C847.558121,341.439137 835.981477,344.917449 827.467011,352.668334 C818.952546,360.419219 814.419088,371.606249 815.140419,383.086166 C803.520046,377.560595 789.721116,379.458034 780.030359,387.914018 C770.339602,396.370002 766.611377,409.76645 770.544247,422 L1080,422 L1080,419.549011 C1079.99456,402.960289 1069.62883,388.133944 1054.03178,382.406079 L1054.03178,382.406079 Z" id="Path" fill="#FFFFFF" fill-rule="nonzero"></path>
            <polygon id="Path" fill="#62B55A" fill-rule="nonzero" points="984 501.819723 25 502 193.327553 391 820.494881 391.191233"></polygon>
            <polygon id="Path" fill="#B0D4A5" fill-rule="nonzero" points="701 501.977048 579.685036 502 555 391 634.468494 391.02395"></polygon>
            <polygon id="Path" fill="#B0D4A5" fill-rule="nonzero" points="673.567901 402.695803 658 402.69088 664.624302 397 684.925798 397.006275 709 426 691.182172 425.99498"></polygon>
            <path d="M754.920318,427.99281 C750.331525,427.995471 745.748319,427.668945 741.205174,427.015688 C736.91366,426.408596 732.681109,425.432446 728.553495,424.097843 C724.814174,422.888894 721.221635,421.256859 717.84407,419.232715 C714.793403,417.399895 712.050492,415.087489 709.718269,412.382271 C707.487704,409.768138 706.268983,407.499218 706.062107,405.575511 C705.78307,403.777315 706.456492,401.962776 707.836342,400.794829 C709.683148,399.315496 711.871994,398.33658 714.196384,397.950432 C717.603618,397.264839 721.073352,396.948512 724.546834,397.006806 C728.632036,397.009481 732.711087,397.3274 736.748498,397.957797 C740.778564,398.577035 744.751503,399.530395 748.627185,400.808248 C752.456088,402.063293 756.165491,403.664701 759.710442,405.593066 C763.19323,407.465071 766.442876,409.750743 769.390505,412.401642 C772.290759,415.022836 774.058345,417.30578 774.693266,419.250472 C775.359398,420.9461 774.918376,422.881879 773.585828,424.111362 C772.20836,425.405043 769.919661,426.375641 766.71973,427.023154 C762.826479,427.728877 758.875101,428.053594 754.920318,427.99281 L754.920318,427.99281 Z M748.617313,421.562674 C750.227896,421.584783 751.836529,421.441184 753.418406,421.134092 C754.484838,421.014744 755.464745,420.484021 756.154295,419.652318 C756.619134,418.770884 756.602288,417.709314 756.109722,416.843433 C755.213681,415.15316 754.016055,413.645365 752.577407,412.396294 C749.375359,409.253692 745.57703,406.800297 741.411784,405.184259 C739.655566,404.506529 737.834191,404.016234 735.9773,403.721351 C734.235343,403.444175 732.474991,403.302145 730.711633,403.296503 C729.221833,403.275111 727.734104,403.416504 726.274302,403.718224 C725.251887,403.86181 724.317736,404.381897 723.650692,405.178912 C723.139842,406.020145 723.081896,407.065068 723.496532,407.958841 C724.219995,409.624954 725.261537,411.130108 726.561382,412.38792 C728.101317,414.081454 729.842678,415.575446 731.745681,416.835766 C735.139864,419.065159 738.968184,420.530004 742.971033,421.130964 C744.84016,421.414373 746.727318,421.558663 748.617313,421.562674 L748.617313,421.562674 Z" id="Shape" fill="#B0D4A5" fill-rule="nonzero"></path>
            <path d="M826.811496,427.99047 C822.133102,427.986545 817.46043,427.66021 812.826066,427.013739 C808.264948,426.385482 803.757344,425.41035 799.341713,424.096662 C795.16704,422.852225 791.11412,421.224156 787.233802,419.232882 C783.606592,417.367347 780.215026,415.067765 777.132303,412.383767 C774.146948,409.770007 772.272526,407.501393 771.509035,405.577925 C770.718767,403.657348 770.848657,402.063929 771.898707,400.797666 C772.920714,399.532412 774.765128,398.584229 777.431951,397.953115 C780.743195,397.256534 784.121805,396.939943 787.503475,397.009369 C791.677391,397.018883 795.845021,397.336735 799.972982,397.960377 C808.678631,399.265252 817.151023,401.836909 825.126015,405.595174 C829.203876,407.500255 833.100008,409.779024 836.76542,412.402831 C840.420344,415.023517 842.84577,417.305984 844.041697,419.250232 C845.211179,421.198178 845.310263,422.818026 844.338947,424.109775 C843.336257,425.403071 841.329945,426.373379 838.320012,427.020699 C834.526252,427.736454 830.670296,428.061378 826.811496,427.99047 L826.811496,427.99047 Z M818.65526,421.562287 C820.223666,421.589119 821.790376,421.445459 823.328328,421.133789 C824.601456,420.848123 825.369943,420.354328 825.633788,419.652403 C825.891104,418.951756 825.605778,418.015676 824.777808,416.844165 C823.384006,415.144724 821.763723,413.64841 819.963159,412.397889 C817.789216,410.733545 815.483683,409.252066 813.06976,407.968357 C811.025552,406.882223 808.903511,405.952445 806.721503,405.18685 C804.818286,404.520867 802.85898,404.031138 800.867829,403.723721 C799.085361,403.449488 797.285387,403.307452 795.482361,403.298753 C794.033496,403.272464 792.586423,403.413968 791.16949,403.720493 C790.246542,403.822518 789.428288,404.365841 788.969941,405.180999 C788.673923,405.87398 788.890408,406.800544 789.619395,407.960691 C790.842181,409.645796 792.305984,411.138305 793.962939,412.389416 C795.97629,414.072248 798.141291,415.561073 800.429597,416.836398 C802.455548,417.956065 804.573836,418.896303 806.76067,419.646553 C808.754223,420.327631 810.804976,420.824344 812.887614,421.130561 C814.797734,421.411032 816.725054,421.555298 818.65526,421.562287 Z" id="Shape" fill="#B0D4A5" fill-rule="nonzero"></path>
            <polygon id="Path" fill="#B0D4A5" fill-rule="nonzero" points="868 438 732.665049 437.905944 730 430 863.733123 430.096669"></polygon>
            <polygon id="Path" fill="#B0D4A5" fill-rule="nonzero" points="954 493.97945 786.712636 494 773 478 932.066177 478.001027"></polygon>
            <path d="M483.899191,501.921068 L68,502 L129.672545,456.873269 C175.491531,423.347471 277.53222,396.973642 358.674106,397 L492,397.042909 L483.899191,501.921068 Z" id="Path" fill="#B0D4A5" fill-rule="nonzero"></path>
            <polygon id="Path" fill="#62B55A" fill-rule="nonzero" points="580 501.894843 25 502 36.8514625 494.065723 578.272224 494"></polygon>
            <g id="Group" transform="translate(125.000000, 389.000000)" fill-rule="nonzero">
                <polygon id="Path" fill="#F39200" points="432.414017 7.54240844 267.068459 7.46999736 269.874636 0.33054403 431.278755 0.400170062"></polygon>
                <path d="M344.437884,5.6993804 C344.437884,5.6993804 323.306316,1.7221344 270.677214,8.92609112 C235.004494,13.583757 209.66466,29.371842 202.963015,42.4129058 C199.177574,50.0116123 187.134,76.1283969 232.265074,86.6180615 L400.727907,82.8756019 C400.727907,82.8756019 428.553526,52.7760622 430.839141,40.2890102 C432.71822,27.9459953 405.108061,3.86896779 344.437884,5.6993804 Z" id="Path" fill="#62B55A"></path>
                <path d="M318.574091,25.0174753 C318.574091,25.0174753 299.301914,31.0643276 261.086646,38.5132876 C248.908859,40.8110694 238.018436,44.25644 230.362411,48.4424296 C227.349868,50.0674041 224.879373,51.7833283 223.880323,53.4098052 C220.315239,59.2131567 193.636175,88.5868017 224.925344,93.6004535 L217.518057,112.358627 L369.83748,112.329178 L400.727407,82.8758022 C400.727407,82.8758022 381.07168,71.3027546 409.576457,56.6832929 C409.576457,56.6832929 387.268853,47.9353951 399.471623,40.235422 C399.472123,40.235422 358.427094,21.2076048 318.574091,25.0174753 Z" id="Path" fill="#B0D4A5"></path>
                <path d="M277.48499,11.4889092 L318.574091,25.017876 C318.574091,25.017876 363.922024,25.6814682 359.647401,41.7121525 C359.647401,41.7121525 322.313061,38.7873386 314.772661,52.3726983 C306.753472,66.1337471 325.563649,66.3980822 305.436827,70.5856744 L301.014801,79.0860648 C301.014801,79.0860648 296.028041,76.8656103 288.370317,78.0715952 C280.649434,79.2789823 265.98996,81.9354545 258.138362,81.0691287 C258.138362,81.0691287 257.608106,84.5830121 265.909312,83.9187187 C274.171543,83.2549262 283.561342,81.6812361 295.142017,82.0615621 C303.668054,82.5154739 312.15386,83.5449989 320.541712,85.1431339 C320.541712,85.1431339 284.2409,83.5732501 281.162401,88.0721547 C278.030636,92.5895898 315.098649,88.498857 318.687417,92.3474913 C322.386813,96.2096479 241.319591,99.747671 211.533346,87.0727098 C211.533346,87.0727098 212.269367,89.0401479 216.040417,90.9448828 C216.13782,90.9937633 216.23509,91.0426771 216.332227,91.0916243 C237.639882,101.438654 272.908364,108.798868 315.965686,111.685519 L325.780608,112.337692 L386.847627,112.325873 L400.728607,82.8758022 L429.815906,67.8116086 L416.864322,30.442404 L340.50504,9.64817958 L277.48499,11.4889092 Z" id="Path" fill="#62B55A"></path>
                <path d="M243.523059,46.951075 C243.523059,46.951075 265.783494,40.2566569 283.675867,43.1157626 C301.986169,45.9822805 292.117482,49.962832 292.117482,49.962832 C292.117482,49.962832 297.074261,53.7867256 288.979521,55.4241205 C280.788444,57.0641197 249.146904,56.9278955 241.206364,54.8545831 C233.401436,52.7851772 258.276572,46.7412297 283.983867,47.903142 C278.027027,46.0923862 271.771768,45.479988 265.577928,46.1011762 C255.133514,47.1251616 237.543744,48.4480388 243.523059,46.951075 Z" id="Path" fill="#62B55A"></path>
                <path d="M223.880323,53.4098052 C223.880323,53.4098052 219.056157,50.6539695 214.412275,53.4076016 C209.702535,56.1685457 207.206257,67.1247782 215.097829,67.7803572 C223.025778,68.4362367 235.488879,59.7483376 235.488879,59.7483376 L223.880323,53.4098052 Z" id="Path" fill="#B0D4A5"></path>
                <path d="M205.41652,111.89867 C240.439063,108.086596 264.561588,105.271162 264.561588,105.271162 C250.996723,105.116827 237.451254,104.197933 223.989352,102.518832 C176.735457,96.3079096 120.288936,96.1804999 63.4075978,102.860795 C41.8116308,105.32485 19.9022675,108.31427 0.301803888,111.89867 L205.41652,111.89867 Z" id="Path" fill="#62B55A"></path>
                <polygon id="Path" fill="#62B55A" points="365.841276 111.811026 205.599402 111.841075 209.964565 104.002173 366.299978 103.983142"></polygon>
                <polygon id="Path" fill="#F39200" points="455.886765 113.21146 199.460391 113.271424 202.77024 106.103283 454.620588 106.05956"></polygon>
                <polygon id="Path" fill="#F39200" points="455.886765 111.793998 412.948666 111.802011 403.208995 0.704158949 431.352707 0.713173786"></polygon>
            </g>
            <path d="M256.350921,72.7276225 C250.271632,72.7325821 244.508759,75.4423409 240.6216,80.1237022 C238.276659,78.6753698 235.58634,77.8844417 232.831819,77.8335805 C234.733402,73.1838987 235.708663,68.2066247 235.702689,63.182018 C235.702689,42.0952716 218.880054,25 198.127459,25 C181.033193,25.085306 166.137877,36.6847777 161.842495,53.2562922 C155.578687,52.2704274 149.225189,54.3759032 144.784695,58.9090495 C140.758833,63.0151451 138.665445,68.641606 139.026692,74.3850078 C136.78464,73.297014 134.326113,72.7304456 131.834752,72.7276225 C122.470086,72.7958099 114.933416,80.4537858 115,89.8328868 C115,91.5851721 115.264605,93.3274137 115.786256,95 L276.95695,95 C276.982292,94.5723134 277,94.1424285 277,93.7083466 C277.081854,82.2041305 267.837435,72.8109872 256.350921,72.7276225 Z" id="Path" fill="#FFFFFF"></path>
            <path d="M562.501046,15.7553966 C560.861614,15.7560251 559.240339,16.0855641 557.740784,16.7229636 C554.896487,7.97990652 547.096124,1.57761631 537.672669,0.251690973 C528.249214,-1.07423437 518.869341,2.91071428 513.540921,10.503831 C510.845715,9.87911441 508.001392,10.4625259 505.805535,12.0904697 C503.609679,13.7184134 502.298712,16.2156126 502.240246,18.8818221 C502.242212,19.2094318 502.263027,19.5366856 502.302596,19.8620821 C498.959746,21.9203715 496.672062,25.2372068 496,29 L573.688303,29 C573.899819,28.1951382 574.004501,27.3677462 574,26.5375777 C573.918649,20.5062149 568.771145,15.6795118 562.501046,15.7553966 Z" id="Path" fill="#FFFFFF"></path>
            <path d="M801.132331,185.492796 C796.817947,182.80416 791.452523,182.412928 786.792483,184.447175 C782.223049,170.076588 768.958623,160.23285 753.855424,160.004069 C738.752225,159.775288 725.194648,169.21273 720.190437,183.438297 C719.718041,183.413231 719.244643,183.413231 718.772246,183.438297 C714.618132,183.424352 710.583602,184.825694 707.335545,187.41069 C703.079195,185.14444 697.956383,185.212828 693.762278,187.59189 C689.623623,189.910981 687.044061,194.26276 687,199 L808,199 L808,197.738852 C807.980847,192.747531 805.384977,188.118716 801.132331,185.492796 L801.132331,185.492796 Z" id="Path" fill="#FFFFFF" fill-rule="nonzero"></path>
            <path d="M322.102385,453.55086 L358.597332,443.378695 L395.293078,434.9163 L396.391241,413 L741.942255,430.965327 L792,447.489599 C753.911026,456.428837 755.199415,449.47202 741.269032,451.436048 C719.896398,454.449466 711.228699,451.845909 708.421795,448.613152 L442.13424,456.291234 L395.293078,448.930457 L373.507971,451.723256 L335.472763,461.361628 L330.00519,471 L304,451.878072 L322.102385,453.55086 Z" id="Path" fill="#60595C" fill-rule="nonzero" opacity="0.41" style="mix-blend-mode: multiply;"></path>
            <circle id="Oval" fill="#B0876E" fill-rule="nonzero" transform="translate(421.505780, 166.695152) rotate(-26.644900) translate(-421.505780, -166.695152) " cx="421.50578" cy="166.695152" r="37.4737278"></circle>
            <path d="M451,190.089948 L437.75544,222 C437.75544,222 405.467683,203.425187 394.250098,190.80119 C383.032513,178.177192 451,190.089948 451,190.089948 Z" id="Path" fill="#B0876E" fill-rule="nonzero"></path>
            <polygon id="Path" fill="#B0876E" fill-rule="nonzero" points="391.672915 191 374 218.203077 402.43741 232 415 206.605965"></polygon>
            <polygon id="Path" fill="#B0876E" fill-rule="nonzero" points="387 249 454.294538 306.650559 516.860114 301.309255 529 314.188389 458.133154 331 422.358399 321.540584"></polygon>
            <path d="M458.079173,380.04808 L576.367675,343.121971 L714,421.307784 L704.117703,432 L548.28486,380.896908 L449.569584,425.976437 L403,232 C421.158981,281.512363 441.039777,362.095401 458.079173,380.04808 Z" id="Path" fill="#223F6C" fill-rule="nonzero"></path>
            <path d="M706,426.434362 C706,426.434362 705.099446,426.936631 703.719671,427.690289 C699.293238,430.125059 689.827028,435.11053 689.060193,433.777213 C688.503905,433.055631 687.867373,432.400778 687.163078,431.825492 C686.511512,431.226512 685.745083,430.569463 684.959392,429.931839 C682.161317,427.613001 679,425.216977 679,425.216977 L684.192861,416.695181 L684.614499,416 L698.334594,422.705227 L700.864013,423.922612 L706,426.434362 Z" id="Path" fill="#B0876E" fill-rule="nonzero"></path>
            <path d="M751,425.959443 C751,425.959443 749.813418,427.141964 739.153112,430.76571 C735.4992,432.024516 730.734039,433.550724 724.4998,435.419408 C719.715806,436.869027 715.572235,437.994334 711.993755,438.890584 C711.390998,439.024083 710.825906,439.176754 710.260915,439.310253 C697.848935,442.247433 692.989609,442.018578 692.424318,441.980435 L692.367719,441.980435 L687,431.490319 L687.376661,431.280534 L699.016386,424.528895 L700.843291,423.479469 L704.271107,421.495954 C708.603008,421.705739 713.029174,421.972737 717.398842,422.201592 C720.393497,422.373133 723.369318,422.506733 726.250975,422.60219 C735.630633,422.907331 744.106205,422.697546 749.944851,421 L750.321611,422.773731 L751,425.959443 Z" id="Path" fill="#6A6367" fill-rule="nonzero"></path>
            <path d="M753,427.669443 C753,427.669443 751.670049,428.989408 739.320427,433.143194 C735.90061,434.307779 731.606689,435.666666 726.267885,437.297084 C721.252045,438.811249 716.939126,439.995345 713.253238,440.907706 C713.158349,440.927013 713.06336,440.965832 712.96837,440.985345 C698.775252,444.479303 693.855005,443.97465 693.855005,443.97465 L693,442.305309 C693.569936,442.344129 698.471789,442.577046 710.992692,439.587741 C711.562628,439.451873 712.132665,439.296492 712.740697,439.160624 C716.350494,438.248366 720.53083,437.103089 725.356188,435.627846 C731.644986,433.725589 736.451849,432.172707 740.137738,430.891562 C750.891337,427.203506 752.088303,426 752.088303,426 L753,427.669443 Z" id="Path" fill="#FDF0F3" fill-rule="nonzero"></path>
            <path d="M701,422.007699 L699.139688,422.897781 L697.33652,423.750087 L691.414032,426.553199 L685.890541,429.981162 L685.852579,430 L626.343191,409.280317 L546.864675,381.628856 L447.815527,426.875144 L444,410.98493 C449.307818,405.165673 454.108871,398.90563 458.351034,392.272766 C463.229481,390.795508 460.85669,384.77275 478.870803,371.496269 L595.706294,335 L701,422.007699 Z" id="Path" fill="#E94468" fill-rule="nonzero"></path>
            <path d="M701,422.007699 L699.139688,422.897781 L697.33652,423.750087 L691.414032,426.553199 L685.890541,429.981162 L685.852579,430 L626.343191,409.280317 L546.864675,381.628856 L447.815527,426.875144 L444,410.98493 C449.307818,405.165673 454.108871,398.90563 458.351034,392.272766 C463.229481,390.795508 460.85669,384.77275 478.870803,371.496269 L595.706294,335 L701,422.007699 Z" id="Path" fill="#9C304B" fill-rule="nonzero"></path>
            <path d="M712,441.044731 C697.945126,444.469861 693.072803,443.975149 693.072803,443.975149 L692.226127,442.338693 L692.169589,442.338693 L686.807634,431.872727 L687.183891,431.663425 C686.544155,431.073577 685.791642,430.426545 685.020217,429.798641 L684.982591,429.817568 L626,409 C643.215229,410.427154 675.651031,413.129345 676.515923,412.901016 C676.854355,412.805779 679.996595,414.442335 684.267405,416.763776 C687.842141,418.723899 692.207115,421.178532 696.365148,423.538129 C697.192912,424.013813 698.001963,424.489498 698.810915,424.92743 C700.44783,425.878799 702.009394,426.773086 703.439467,427.591364 C705.452639,428.752135 707.202032,429.760687 708.500516,430.502856 C709.986928,431.359088 710.871131,431.872827 710.871131,431.872827 L711.774346,439.256056 L711.981287,440.892512 L712,441.044731 Z" id="Path" fill="#0A0005" fill-rule="nonzero" opacity="0.26" style="mix-blend-mode: multiply;"></path>
            <path d="M374.566557,218 C374.566557,218 346.25941,259.744451 353.052742,286.423098 C358.828812,309.105621 390.377313,399.531285 402.414761,432.866701 L403.580243,433.293402 C403.580243,433.293402 405.917997,440.096076 406.459538,441.589277 C410.988726,454.076852 440.018093,457.652685 477.793515,453.111694 C515.04817,448.633191 593.286643,394.47597 593.286643,394.47597 C606.141696,382.996615 593.286643,352.529636 593.286643,352.529636 L459.818193,391.921575 C422.070537,368.180763 444.724764,288.682578 402.873603,231.930706 L374.566557,218 Z" id="Path" fill="#2D4E9D" fill-rule="nonzero"></path>
            <path d="M395,284 L379.995665,370 C379.995665,370 370.243187,340.200115 370.001722,339.337428 C369.760256,338.47474 395,284 395,284 Z" id="Path" fill="#223F6C" fill-rule="nonzero"></path>
            <path d="M365.252109,242.325833 L365.252109,242.325833 C361.246549,244.997494 358.415356,249.094556 357.337416,253.779305 L338.351069,336.300555 L296,455 L313.963046,455 L370.188675,345.69976 L392.203757,294.687252 C397.675095,282.009238 398.493295,267.813537 394.514644,254.59354 L392.305575,247.253209 C386.102646,238.590528 374.123689,236.408744 365.252109,242.325833 L365.252109,242.325833 Z" id="Path" fill="#B0876E" fill-rule="nonzero"></path>
            <path d="M269,464.147491 L273.285728,455.927436 L283.724921,453.398133 L287.367493,450 L298.999901,450 L306.959167,455.927436 L314.00005,455.927436 L326.52861,462.882788 L329,473 L325.679603,473 C322.217807,473 319.184305,470.607101 318.273471,467.157848 L317.979484,466.044545 L311.825822,468.257929 L301.143063,467.867283 L295.586504,473 L273.285728,473 L269,464.147491 Z" id="Path" fill="#B0876E" fill-rule="nonzero"></path>
            <path d="M457.821703,165.821358 C448.668765,169.887772 439.967227,174.903123 431.859804,180.785153 C425.893885,185.193425 419.539467,189.049542 412.875118,192.305827 L412.856311,192.305827 C410.965575,193.213998 409.187984,193.989556 407.486122,194.651718 C395.970742,199.248718 388.709617,199.097289 386.799875,198.945961 C386.459742,198.927045 386.289676,198.908229 386.289676,198.908229 L386.232954,198.794532 C385.598727,197.616392 385.030593,196.40382 384.531192,195.162451 C383.319668,192.231578 382.28409,189.230967 381.429986,186.176627 C378.388706,175.143424 376.89947,163.739956 377.005264,152.295383 C377.005264,135.269538 401.586727,116.351988 426.168289,122.027303 C450.749852,127.702618 463.021626,154.754569 457.821703,165.821358 Z" id="Path" fill="#493B2F" fill-rule="nonzero"></path>
            <path d="M389,197.628693 C389,197.628693 377.365791,208.955182 369.679846,207.287171 C360.39155,205.28958 357.473512,211.204883 355.184812,212 L351.808974,207.209599 C339.354821,207.209599 337.38982,202.244659 337.38982,202.244659 L337.447133,201.914977 L338.553342,195.863819 L338.648696,195.281924 C335.482637,193.86592 334.491459,190.685043 335.234716,187.368927 C336.798725,180.328721 346.08682,172.648441 358.350367,179.96056 C366.951912,185.080747 378.700546,183.897563 383.506797,184.518245 C384.307771,184.61521 384.765572,184.69268 384.765572,184.69268 L387.0351,192.760822 L388.351088,197.454258 L388.923313,197.609505 L389,197.628693 Z" id="Path" fill="#493B2F" fill-rule="nonzero"></path>
            <path d="M416,197.805193 L421.248942,211.982234 L433.067542,218.968941 L437.088636,222 L442.218007,214.245165 C442.218007,214.245165 444.523969,214.035433 445.168602,213.121675 C445.762005,212.281175 444.993054,211.204949 444.993054,211.204949 L445.566676,209.955719 C445.566676,209.955719 446.825481,210.568469 447.488806,210.030257 C448.152131,209.492045 448.606381,204.763247 448.606381,204.763247 L451.950402,206.013757 C452.686313,206.257968 453.49615,206.11932 454.107851,205.644392 C454.719552,205.169464 455.051947,204.421276 454.99337,203.651179 L452.565068,187 L416,197.805193 Z" id="Path" fill="#B0876E" fill-rule="nonzero"></path>
            <path d="M374,218 C374,218 393.687068,246.407366 409,242.659229 L401.730326,231.329408 L374,218 Z" id="Path" fill="#B0876E" fill-rule="nonzero"></path>
            <path d="M409.558673,243 L448,305.497205 C448,305.497205 441.947976,322.857394 432.763461,325 C432.763666,325 404.732344,299.871498 409.558673,243 Z" id="Path" fill="#2D4E9D" fill-rule="nonzero"></path>
            <polygon id="Path" fill="#60595C" fill-rule="nonzero" opacity="0.23" style="mix-blend-mode: multiply;" points="288.407645 471 286 463.046331 294.505864 452 290.253439 462.585825 289.530334 471 294.024132 471 297.233988 463.95474 307.827019 463.95474 310.876635 461.5 319.542738 463.95474 325 471 305.579613 471"></polygon>
            <path d="M413.628807,211.390276 C411.910317,211.594241 414.062669,196.469769 415.912471,189.710394 C416.726507,186.73758 423.213314,175 423.213314,175 L416.803841,190.266462 L417.457396,202.632968 L438,222 C431.111796,217.88371 423.512085,212.802212 415.545379,207.223397 L413.628807,211.390276 Z" id="Path" fill="#60595C" fill-rule="nonzero" opacity="0.23" style="mix-blend-mode: multiply;"></path>
            <path d="M430.872335,173.884116 C424.018709,169.460923 416.137425,182.799558 414.29561,188.148747 C412.453795,193.497936 419.820763,191.714621 419.820763,191.714621 C419.820763,191.714621 436.397974,177.450274 430.872335,173.884116 Z" id="Path" fill="#B0876E" fill-rule="nonzero"></path>
            <path d="M710,429.836238 C710,429.836238 712.165884,435.82084 711.582724,439.137944 C710.999564,442.455049 735.837274,441.975932 735.837274,441.975932 L741,427.401605 C735.835503,426.890129 730.866271,425.084197 726.516055,422.137809 C719.235409,417.219962 710,429.836238 710,429.836238 Z" id="Path" fill="#B0876E" fill-rule="nonzero"></path>
            <path d="M593.022552,352 L459.422421,391.595558 C459.422421,391.595558 432.590641,435.960119 403,433.16936 L403,433.16936 C404.436167,437.15715 405.482125,440.052997 406.012002,441.519995 C410.545651,454.072119 439.603615,457.666435 477.41625,453.101871 C514.707606,448.600319 593.023152,394.163057 593.023152,394.163057 C619.658078,411.850579 684.31529,414.925296 710.950416,435.465684 C718.609502,434.022465 725.427367,429.677285 730,423.324952 L610.078298,352.393374 L593.022552,352 Z" id="Path" fill="#E94468" fill-rule="nonzero"></path>
            <path d="M791.770793,448.266258 C791.770793,448.266258 777.00312,456.351475 744.411941,451.388711 C727.640841,448.82658 722.339551,454.950003 714.606636,451.461765 C714.266602,451.304986 713.931637,451.125223 713.6415,450.956234 C707.265738,447.196095 711.201227,439.350972 711.201227,439.350972 C711.201227,439.350972 731.309848,439.28828 733.001073,435.746791 C734.755101,432.312558 736.808174,429.050181 739.134904,426 L792,440.574733 L791.83043,445.876399 L791.852695,445.881939 L791.770793,448.266258 Z" id="Path" fill="#6A6367" fill-rule="nonzero"></path>
            <path d="M791.918319,448.683877 C791.918319,448.683877 777.190523,457.763798 744.687351,452.190478 C727.961538,449.313134 722.674564,456.189907 714.96253,452.27252 C714.623414,452.096453 714.289354,451.894574 714,451.704795 L736.386499,448.054966 C736.386499,448.054966 752.091594,451.330766 758.210151,450.90431 C764.328707,450.477853 786.911479,449.637615 791.977795,446 L792,446.006222 L791.918319,448.683877 Z" id="Path" fill="#FDF0F3" fill-rule="nonzero"></path>
            <path d="M460.290232,160.00208 C467.225822,159.7818 460.898737,177.126861 440.721702,178.795549 C426.34063,179.984984 405,175.596311 405,175.596311 C405,175.596311 437.642783,177.876592 442.859199,175.596311 C449.13551,172.852749 455.688778,164.851373 454.157634,164.322682 L460.290232,160.00208 Z" id="Path" fill="#493B2F" fill-rule="nonzero"></path>
            <path d="M387.680853,198.068019 C387.680853,198.068019 401.185532,196.080544 409,194 C397.449089,198.514005 390.16556,198.36531 388.249924,198.216714 L388.325686,198.235288 C388.325686,198.235288 376.755609,209.0837 369.112033,207.486094 C359.874936,205.572819 356.972984,211.238444 354.6969,212 L351.339671,207.411796 C338.954169,207.411796 337,202.65642 337,202.65642 L337.056997,202.340653 C340.945166,203.436551 348.323523,205.349924 350.068468,204.681241 C352.496277,203.789467 365.109368,203.232231 365.109368,203.232231 C365.109368,203.232231 383.109719,199.944244 387.680853,198.068019 Z" id="Path" fill="#413020" fill-rule="nonzero"></path>
            <path d="M418,191 C417.374747,193.527078 414.437611,196.262982 410,199 L418,191 Z" id="Path" fill="#392B1D" fill-rule="nonzero"></path>
            <path d="M351.960402,194.446349 C347.467129,196.415652 342.514955,197.269174 337.573804,196.925922 L337.669707,196.383001 C334.485416,195.061838 333.48853,192.094009 334.236068,189 C338.110862,197.088291 352.861892,194.084465 351.960402,194.446349 Z" id="Path" fill="#413020" fill-rule="nonzero"></path>
            <polygon id="Path" fill="#60595C" fill-rule="nonzero" opacity="0.23" style="mix-blend-mode: multiply;" points="277.200225 458.523875 274 462.792074 277.200225 471 282 471 278 463.401816 281.288964 457"></polygon>
            <path d="M452.584629,186.502706 C451.246405,184.06034 449.625257,182.160295 447.832718,180.933293 C446.919784,180.300992 445.960658,179.902071 444.984213,179.748538 C443.990747,179.590443 442.989631,179.683415 442.010955,180.024662 C442.006199,180.026778 442.001357,180.021797 442,180.013433 C441.999656,180.005608 442.00212,179.998216 442.006173,179.995025 C442.971116,179.41994 443.977325,179.090637 444.994609,179.016995 C446.028964,178.940216 447.064237,179.12386 448.069436,179.562431 C450.128083,180.450653 452.051728,182.127239 453.704903,184.474118 C453.936575,184.809549 454.043869,185.345058 453.983382,185.864024 C453.922895,186.38299 453.704637,186.79953 453.416897,186.945149 C453.129157,187.090767 452.819553,186.941365 452.613322,186.557379 L452.584629,186.502706 Z" id="Path" fill="#493B2F" fill-rule="nonzero"></path>
            <path d="M446.050635,185.440642 C447.248534,185.161417 448.449204,184.991107 449.666635,185.000359 C450.276473,185.014236 450.887366,185.052924 451.520166,185.25267 C451.850983,185.338208 452.179542,185.496703 452.50348,185.727015 C452.692905,185.842455 452.878108,186.019581 453.056174,186.255607 C453.313817,186.566959 453.549923,187.035476 453.751265,187.634908 C454.119336,188.987393 454.073634,191.034575 453.649185,192.207417 C453.224737,193.380259 452.582272,193.234631 452.2142,191.882146 C452.312255,192.065072 452.130795,191.419576 451.908292,191.119325 C451.672484,190.716477 451.427778,190.368909 451.176118,190.079383 C450.651402,189.430943 450.087095,188.892679 449.521072,188.383852 C448.384407,187.376709 447.217653,186.527262 446.045092,185.78757 C446.01526,185.7699 445.995507,185.678776 446.000882,185.583618 C446.005609,185.505947 446.025902,185.447631 446.050635,185.440642 L446.050635,185.440642 Z" id="Path" fill="#493B2F" fill-rule="nonzero"></path>
            <circle id="Oval" fill="#493B2F" fill-rule="nonzero" transform="translate(450.318949, 189.011550) rotate(-56.281600) translate(-450.318949, -189.011550) " cx="450.318949" cy="189.01155" r="1"></circle>
            <path d="M448,211.904756 C444.555671,209.36141 442.315344,207.707399 440.003223,206 C440.003223,206 439.818907,209.642478 442.237845,211.261112 C443.705284,212.242593 445.237998,213.156952 446.828963,214 L448,211.904756 Z" id="Path" fill="#FFFFFF" fill-rule="nonzero"></path>
            <path d="M426,171.312234 C425.731151,171.516816 425.289203,171.908535 424.927359,172.236658 C424.544653,172.579387 424.164702,172.939155 423.789967,173.306329 C423.037249,174.039255 422.315922,174.817621 421.604437,175.607145 C420.17995,177.190223 418.877262,178.885259 417.708193,180.676873 C416.51733,182.450426 415.488228,184.33374 414.634044,186.302736 C414.206759,187.294611 413.853575,188.27898 413.509051,189.336682 L412.922444,191.11169 L412.244811,192.860225 C411.299363,195.204763 410.029526,197.395846 408.474824,199.365275 C406.914062,201.34928 404.966128,202.972997 402.757354,204.131122 C398.461488,206.277495 393.516979,206.588123 389,204.995399 C391.224181,205.316497 393.486561,205.21616 395.675761,204.699327 C397.785093,204.233448 399.778866,203.32522 401.533068,202.031135 C404.844007,199.355523 407.152076,195.579094 408.063776,191.345687 L408.430147,189.758322 L408.717792,188.1456 C408.924447,186.936668 409.180306,185.667892 409.50633,184.454699 C410.165352,182.014086 411.042129,179.641583 412.125443,177.367548 C413.223113,175.108449 414.491633,172.941926 415.919245,170.888057 C416.627778,169.856017 417.395356,168.869619 418.193538,167.897523 C418.594155,167.412388 419.003726,166.933136 419.431602,166.458854 C419.879847,165.96956 420.262258,165.558265 420.852309,165 L426,171.312234 Z" id="Path" fill="#493B2F" fill-rule="nonzero"></path>
            <path d="M535.803588,322.868436 L518.201843,309.021602 C517.843301,308.745115 517.975532,307.505739 518.494519,306.252653 L549.444084,231.519827 C549.929789,230.346817 550.697143,229.382835 551.161291,229.36535 L574.214286,228 C574.214286,228 575.612094,228.853307 575.675179,228.884204 C576.119159,229.099195 576.114887,230.107982 575.619843,231.337622 L539.370034,321.376019 C539.139863,322.109434 538.578059,322.691821 537.853408,322.948213 C537.170548,323.037914 536.477411,323.010938 535.803588,322.868436 Z" id="Path" fill="#918C8E" fill-rule="nonzero"></path>
            <path d="M534.800857,322.907832 L516.204627,308.700747 C515.84141,308.423387 515.975011,307.180835 516.500092,305.924862 L547.809518,231.024494 C548.300623,229.848945 549.07727,228.883157 549.547227,228.866157 L573.450494,228 C574.111982,227.976419 574.187853,229.097489 573.614964,230.506258 L536.866102,320.863421 C536.245306,322.388801 535.318622,323.303492 534.800857,322.907832 Z" id="Path" fill="#C2BFC0" fill-rule="nonzero"></path>
            <path d="M571.850032,231.981913 L537.910054,316.159885 C537.67272,316.748527 537.315714,317.1109 537.113488,316.969369 L519.083768,304.341602 C518.938619,304.239977 518.986969,303.756981 519.191101,303.263028 L548.551299,232.228889 C548.743294,231.764388 549.046332,231.386133 549.228897,231.383118 L571.792955,231 C572.044634,230.995313 572.070715,231.434785 571.850032,231.981913 Z" id="Path" fill="#474044" fill-rule="nonzero"></path>
            <path d="M545,297.705789 L537.337504,316.165562 C537.094807,316.750227 536.729735,317.110151 536.52294,316.969576 L518.085661,304.427138 C517.937232,304.326199 517.986674,303.846467 518.195418,303.355852 L537.921474,257 L545,297.705789 Z" id="Path" fill="#847F82" fill-rule="nonzero"></path>
            <path d="M531.948357,315.710979 C532.731104,314.754452 533.041415,313.71917 532.853475,312.691257 C532.805663,312.4564 532.580103,312.239219 532.222156,312.08339 C531.057194,311.672416 528.892831,312.820527 527.382416,314.645997 C526.994521,315.11305 526.677972,315.593871 526.435437,316.084405 C525.845409,316.897462 525.855295,317.787715 526.463344,318.597508 C526.533847,318.650409 526.62137,318.697233 526.722434,318.736118 C527.881362,319.169508 530.063827,318.023452 531.590836,316.174819 C531.719815,316.02089 531.838612,315.864534 531.948357,315.710979 Z M526.798505,318.908845 C526.763138,318.895563 526.729455,318.880414 526.696615,318.865472 C525.9156,318.491929 525.908863,317.390599 526.582936,316.114949 C526.815466,315.673556 527.108764,315.240487 527.460789,314.818754 C528.980716,312.990468 531.155769,311.844313 532.325818,312.256041 C532.645528,312.389649 532.857739,312.575215 532.924105,312.779209 C533.176421,313.94111 532.797005,315.115179 531.82479,316.180942 C531.782686,316.235728 531.737215,316.290722 531.69048,316.346961 C530.156659,318.194547 527.963501,319.341117 526.798505,318.908845 Z" id="Shape" fill="#847F82" fill-rule="nonzero"></path>
            <path d="M527.96064,320.312047 L527.02224,321 C525.732402,318.608475 525.711431,315.979333 526.96304,313.578167 L527.74464,313 C526.46384,316.391214 526.47664,319.317357 527.96064,320.312047 Z" id="Path" fill="#CECCCD" fill-rule="nonzero"></path>
            <path d="M528.457642,318.418115 L527.507242,319 C529.35454,316.643269 530.075465,314.047038 529.596042,311.477715 L530.380042,311 C530.777953,313.525234 530.118876,316.068468 528.457642,318.418115 Z" id="Path" fill="#CECCCD" fill-rule="nonzero"></path>
            <path d="M517.147924,288.599531 C517.832973,288.284456 523.795829,277.844887 523.795829,277.844887 L531,273 L530.655592,275.809335 C530.45554,276.591571 530.133037,277.340024 529.699128,278.029056 L527.580554,281.394618 L521.581863,295.616749 L518.697201,302 L517,300.285202 L517.147924,288.599531 Z" id="Path" fill="#B0876E" fill-rule="nonzero"></path>
        </g>
    </g>
</svg>